<?xml version="1.0" encoding="UTF-8"?>
<svg xmlns="http://www.w3.org/2000/svg" viewBox="0 0 64 64" width="512" height="512"><g id="Filled_outline" data-name="Filled outline"><path d="M54,20l-9-9a4,4,0,0,0-4-4,3.683,3.683,0,0,0-3.03,1C37.676,4.961,35.116,3,32,3s-5.676,1.961-5.97,5A3.683,3.683,0,0,0,23,7a4,4,0,0,0-4,4l-9,9a6.852,6.852,0,0,0-2,5,10.231,10.231,0,0,0,3,7,4.267,4.267,0,0,1,1,3V46A15.044,15.044,0,0,0,27,61H37A15.044,15.044,0,0,0,52,46V35a4.267,4.267,0,0,1,1-3,9.453,9.453,0,0,0,3-7A6.852,6.852,0,0,0,54,20Z" style="fill:#ad6327"/><path d="M45,11V5a1.92,1.92,0,0,1,2-2h0a3.958,3.958,0,0,1,2,1l1,1a12.187,12.187,0,0,1,4,9v6Z" style="fill:#f9bb4b"/><path d="M19,11V5a1.92,1.92,0,0,0-2-2,3.958,3.958,0,0,0-2,1L14,5a12.187,12.187,0,0,0-4,9v6Z" style="fill:#f9bb4b"/><path d="M29,30,19,33V52.009A3.083,3.083,0,0,0,22.087,55,2.281,2.281,0,0,1,24,57a4.8,4.8,0,0,0,5,4h6c2.93,0,4.676-1.377,5.15-4.227a2.375,2.375,0,0,1,2.082-1.782A3.01,3.01,0,0,0,45,52V33L35,30A10.493,10.493,0,0,0,29,30Z" style="fill:#ffd782"/><path d="M30,43h4a3,3,0,0,1,3,3v0a5,5,0,0,1-5,5h0a5,5,0,0,1-5-5v0a3,3,0,0,1,3-3Z" style="fill:#66342e"/><path d="M26.769,15.639c-1.417.2-3.209.711-3.7,2-.395,1.034.5,1.715,1.147,2.213A4.008,4.008,0,0,1,26.02,22.2,4.223,4.223,0,0,1,24.4,26.2a4.5,4.5,0,0,1-3.253.806l-.286,1.98a6.582,6.582,0,0,0,.914.063A6.3,6.3,0,0,0,25.6,27.8a6.2,6.2,0,0,0,2.376-5.992,5.855,5.855,0,0,0-2.552-3.537l-.183-.141a6.9,6.9,0,0,1,2.739-.6c3.174-.182,7.74.786,10.217,4.074a9.914,9.914,0,0,1,1.8,6.36l2,.076a11.888,11.888,0,0,0-2.2-7.64C36.707,16.3,30.872,15.05,26.769,15.639Z"/><path d="M34,42H30a4,4,0,0,0-4,4,6.006,6.006,0,0,0,5,5.91v2.555l-2.555,1.7,1.11,1.664L32,56.2l2.445,1.63,1.11-1.664L33,54.465V51.91A6.006,6.006,0,0,0,38,46,4,4,0,0,0,34,42Zm1.753,5.339-1.046-1.046-1.414,1.414L34.6,49.015a3.924,3.924,0,0,1-5.2,0l1.307-1.308-1.414-1.414-1.046,1.046A3.971,3.971,0,0,1,28,46a2,2,0,0,1,2-2h4a2,2,0,0,1,2,2A3.971,3.971,0,0,1,35.753,47.339Z"/><rect x="24" y="36" width="2" height="2"/><rect x="38" y="36" width="2" height="2"/><path d="M55,14a13.115,13.115,0,0,0-4.293-9.707l-1-1A4.84,4.84,0,0,0,47,2a2.935,2.935,0,0,0-3,3V7.028A4.95,4.95,0,0,0,41,6a6.536,6.536,0,0,0-2.374.347A6.739,6.739,0,0,0,32,2a6.739,6.739,0,0,0-6.626,4.347A6.536,6.536,0,0,0,23,6a4.95,4.95,0,0,0-3,1.028V5a2.935,2.935,0,0,0-3-3,4.84,4.84,0,0,0-2.707,1.293l-1,1A13.115,13.115,0,0,0,9,14v5.616A7.9,7.9,0,0,0,7,25a11.183,11.183,0,0,0,3.293,7.707A3.3,3.3,0,0,1,11,35V46A16.019,16.019,0,0,0,27,62H37A16.019,16.019,0,0,0,53,46V35a3.3,3.3,0,0,1,.707-2.293A10.465,10.465,0,0,0,57,25a7.9,7.9,0,0,0-2-5.384ZM46,5a.925.925,0,0,1,.991-1,3.38,3.38,0,0,1,1.3.707l1,1A11.234,11.234,0,0,1,53,14v3.586l-2.7-2.7a4.5,4.5,0,0,0,.656-1.75,4.835,4.835,0,0,0-1.264-3.826l-1.453,1.376a2.761,2.761,0,0,1,.737,2.174,2.413,2.413,0,0,1-.151.551L46,10.586ZM11,14a11.234,11.234,0,0,1,3.707-8.293l1-1A3.416,3.416,0,0,1,17,4a.928.928,0,0,1,1,1v5.586l-2.849,2.849a2.355,2.355,0,0,1-.161-.573,2.761,2.761,0,0,1,.737-2.174L14.273,9.312a4.839,4.839,0,0,0-1.263,3.826,4.53,4.53,0,0,0,.667,1.771L11,17.586ZM35,60H29a3.825,3.825,0,0,1-4.021-3.207A3.251,3.251,0,0,0,22.137,54,2.087,2.087,0,0,1,20,52.009V33.744l9.287-2.786.007,0a9.517,9.517,0,0,1,5.419,0L44,33.744V52a2.01,2.01,0,0,1-1.846,1.994,3.344,3.344,0,0,0-2.99,2.615C38.773,58.954,37.489,60,35,60ZM52.293,31.293A5.323,5.323,0,0,0,51,35V46A14.017,14.017,0,0,1,40.094,59.644a6.713,6.713,0,0,0,1.043-2.706,1.391,1.391,0,0,1,1.172-.95A4.018,4.018,0,0,0,46,52V33a1,1,0,0,0-.713-.958l-10.013-3a11.525,11.525,0,0,0-6.564,0l-10,3A1,1,0,0,0,18,33V52.009A4.07,4.07,0,0,0,22.037,56c.507.025.865.643.984,1.206a6.27,6.27,0,0,0,1.133,2.5A14.023,14.023,0,0,1,13,46V35a5.323,5.323,0,0,0-1.293-3.707A9.273,9.273,0,0,1,9,25a5.846,5.846,0,0,1,1.707-4.293l9-9A1,1,0,0,0,20,11a3,3,0,0,1,3-3c1.25,0,1.865.176,2.269.649A1,1,0,0,0,27.024,8.1,4.678,4.678,0,0,1,32,4a4.678,4.678,0,0,1,4.976,4.1,1,1,0,0,0,1.755.552C39.135,8.176,39.75,8,41,8a3,3,0,0,1,3,3,1,1,0,0,0,.293.707l9,9A5.846,5.846,0,0,1,55,25,8.451,8.451,0,0,1,52.293,31.293Z"/></g></svg>
