<svg height="512" viewBox="0 0 64 64" width="512" xmlns="http://www.w3.org/2000/svg"><g id="Filled_outline" data-name="Filled outline"><path d="m37 24h-10l-4 3a4.927 4.927 0 0 0 -2 4v19a7.021 7.021 0 0 0 7 7h8a7.021 7.021 0 0 0 7-7v-19a4.927 4.927 0 0 0 -2-4z" fill="#5a6470"/><path d="m21 31h-10c-2.334.467-5 2.62-5 5v4h15z" fill="#394d5c"/><g fill="#143441"><path d="m46 24c.671 0 5.335-.083 8-3a9.565 9.565 0 0 0 2-9c-.934-3.118-3.39-4.471-3-5 .432-.585 3.882.469 6 3 2.5 2.991 2.106 6.905 2 8-.473 4.911-3.714 8.482-6 11-.791.872-1.5 1.547-2 2h-10a4.927 4.927 0 0 0 -2-4l-4-3z"/><path d="m18 24c-.671 0-5.335-.083-8-3a9.565 9.565 0 0 1 -2-9c.934-3.118 3.39-4.471 3-5-.432-.585-3.882.469-6 3-2.5 2.991-2.106 6.905-2 8 .473 4.911 3.714 8.482 6 11 .791.872 1.5 1.547 2 2h10a4.927 4.927 0 0 1 2-4l4-3z"/><path d="m32 40a4 4 0 0 1 4 4v2a2 2 0 0 1 -2 2h-4a2 2 0 0 1 -2-2v-2a4 4 0 0 1 4-4z"/></g><path d="m6 36h15v4h-15z" fill="#aabece"/><path d="m43 31h10c2.334.467 5 2.62 5 5v4h-15z" fill="#394d5c"/><path d="m43 36h15v4h-15z" fill="#aabece" transform="matrix(-1 0 0 -1 101 76)"/><path d="m53.42 5.844a1.487 1.487 0 0 0 -1.225.562c-.639.867.1 1.7.7 2.375a9.066 9.066 0 0 1 2.148 3.506 8.532 8.532 0 0 1 -1.78 8.038c-2.307 2.524-6.451 2.675-7.263 2.675h-28c-.814 0-4.958-.151-7.264-2.674a8.534 8.534 0 0 1 -1.78-8.039 9.066 9.066 0 0 1 2.148-3.506c.6-.672 1.338-1.508.7-2.375a1.487 1.487 0 0 0 -1.225-.562c-1.374-.064-4.372 1.156-6.346 3.514-1.827 2.184-2.578 5.116-2.233 8.742.5 5.24 3.965 9.052 6.255 11.576.281.309.573.611.868.91-2.2 1.025-4.123 3.107-4.123 5.414v4a1 1 0 0 0 1 1h14v9a8.009 8.009 0 0 0 8 8h8a8.009 8.009 0 0 0 8-8v-9h14a1 1 0 0 0 1-1v-4c0-2.307-1.923-4.389-4.127-5.418.3-.3.587-.6.869-.912 2.289-2.522 5.749-6.334 6.256-11.6.347-3.6-.4-6.531-2.231-8.715-1.975-2.355-4.985-3.57-6.347-3.511zm1.711 2.479a8.981 8.981 0 0 1 3.1 2.319 7.4 7.4 0 0 1 1.316 2.358h-2.3a9.739 9.739 0 0 0 -.284-1.287 10.044 10.044 0 0 0 -1.832-3.39zm-9.131 16.677a15.545 15.545 0 0 0 2.241-.187l4.326 5.187h-4.077l-2.857-5zm-28 0h.371l-2.861 5h-4.053l4.456-5.161a15.34 15.34 0 0 0 2.087.161zm-12.233-14.358a8.969 8.969 0 0 1 3.1-2.319 10.052 10.052 0 0 0 -1.827 3.39 9.739 9.739 0 0 0 -.282 1.287h-2.306a7.438 7.438 0 0 1 1.315-2.358zm-1.774 7.239a13.53 13.53 0 0 1 .016-2.881h2.625a10.864 10.864 0 0 0 .508 3h-3.133c-.004-.04-.009-.079-.016-.119zm.407 2.119h3.634a9.875 9.875 0 0 0 1.228 1.675c.072.079.15.149.225.224l-3.307 1.984a14.765 14.765 0 0 1 -1.78-3.883zm2.937 5.521 3.831-2.3a11.31 11.31 0 0 0 2.53 1.121l-3.682 4.265c-.09-.1-.189-.184-.278-.282-.75-.825-1.593-1.759-2.4-2.804zm12.663 13.479h-13v-2h13zm0-4h-12.759a5.894 5.894 0 0 1 3.859-3h8.9zm.084-5h-2.271l2.857-5h3.33l-1.556 1.168a5.775 5.775 0 0 0 -2.36 3.832zm21.916 20a6.006 6.006 0 0 1 -6 6h-8a6.006 6.006 0 0 1 -6-6v-19a3.974 3.974 0 0 1 1.6-3.2l3.733-2.8h9.334l3.778 2.832a3.955 3.955 0 0 1 1.555 3.168zm1.917-20a5.73 5.73 0 0 0 -2.317-3.8l-1.6-1.2h3.33l2.857 5zm13.083 9h-13v-2h13zm-.241-4h-12.759v-3h8.9a5.894 5.894 0 0 1 3.859 3zm-2.5-6.672c-.083.092-.177.174-.261.265l-3.573-4.287a11.167 11.167 0 0 0 2.405-1.084l3.832 2.3c-.807 1.044-1.651 1.978-2.403 2.806zm3.562-4.444-3.308-1.984c.074-.076.153-.145.225-.225a9.868 9.868 0 0 0 1.228-1.675h3.634a14.724 14.724 0 0 1 -1.779 3.884zm2.179-5.984c0 .033-.009.064-.012.1h-3.13a10.864 10.864 0 0 0 .508-3h2.623a13.615 13.615 0 0 1 .011 2.9z"/><path d="m33 49h1a2.9 2.9 0 0 0 3-3v-2a5 5 0 0 0 -10 0v2a2.9 2.9 0 0 0 3 3h1v1.437l-5.316 1.772.632 1.9 5.684-1.897 5.684 1.894.632-1.9-5.316-1.769zm-3-2a.91.91 0 0 1 -1-1v-2a3 3 0 0 1 6 0v2a.91.91 0 0 1 -1 1z"/><path d="m25 34h2v2h-2z"/><path d="m37 34h2v2h-2z"/></g></svg>