<svg height="512" viewBox="0 0 64 64" width="512" xmlns="http://www.w3.org/2000/svg"><g id="Filled_outline" data-name="Filled outline"><path d="m41 31h-18c-2.457 0-3.826-3.686-3-6 0 0 2-6 3-8 1.088-2.177 1.566-4 4-4h10c2.434 0 2.912 1.823 4 4 1 2 3 8 3 8 .826 2.314-.543 6-3 6z" fill="#e8e8e8"/><path d="m45 61h-25l3-30h18z" fill="#d3d2c1"/><path d="m25 7a2 2 0 0 1 2-2 2 2 0 0 1 2 2v-1.652c0-3.131 5-3.131 5 0v1.652a2 2 0 0 1 2-2 2 2 0 0 1 2 2v3.913a1.923 1.923 0 0 1 -2 2.087h-2v5.391a2.544 2.544 0 0 1 -2.758 2.6 2.679 2.679 0 0 1 -2.242-2.748v-5.243h-2a1.923 1.923 0 0 1 -2-2.087z" fill="#e33e5c"/><path d="m26 31h4a0 0 0 0 1 0 0v12a2 2 0 0 1 -2 2 2 2 0 0 1 -2-2v-12a0 0 0 0 1 0 0z" fill="#b11e48"/><path d="m30 31h6a0 0 0 0 1 0 0v7a3 3 0 0 1 -3 3 3 3 0 0 1 -3-3v-7a0 0 0 0 1 0 0z" fill="#e33e5c"/><path d="m37 31-5 6-5-6c0-2.761 2.239-6 5-6 2.761 0 5 3.239 5 6z" fill="#f9bb4b"/><path d="m19.259 61.671a1 1 0 0 0 .741.329h25a1 1 0 0 0 .991-1.132l-3.875-29.068a4.1 4.1 0 0 0 1.984-1.561 6.471 6.471 0 0 0 .848-5.555c-.083-.248-2.034-6.091-3.054-8.131-.145-.288-.278-.571-.406-.842-.651-1.377-1.321-2.787-2.785-3.4a3.4 3.4 0 0 0 .3-1.4v-3.911a3 3 0 0 0 -4.169-2.763c-.962-2.945-5.7-2.945-6.662 0a3 3 0 0 0 -4.172 2.763v3.913a3.247 3.247 0 0 0 .535 1.841 7.5 7.5 0 0 0 -2.024 2.957c-.128.271-.261.554-.406.842-1.02 2.04-2.971 7.883-3.046 8.109a6.478 6.478 0 0 0 .84 5.577 4.089 4.089 0 0 0 2.015 1.575l-2.909 29.086a1 1 0 0 0 .254.771zm6.741-54.671a1 1 0 0 1 2 0 1 1 0 0 0 2 0v-1.652c0-1.31 1.347-1.348 1.5-1.348s1.5.038 1.5 1.348v1.652a1 1 0 0 0 2 0 1 1 0 0 1 2 0v3.913c0 .5-.173 1.087-1 1.087h-2a1 1 0 0 0 -1 1v5.392a1.654 1.654 0 0 1 -.536 1.231 1.44 1.44 0 0 1 -1.118.369 1.7 1.7 0 0 1 -1.346-1.75v-5.242a1 1 0 0 0 -1-1h-2c-.827 0-1-.591-1-1.087zm-4.464 22.089a4.5 4.5 0 0 1 -.587-3.773c.019-.059 1.988-5.955 2.946-7.869.15-.3.29-.6.424-.882.863-1.825 1.269-2.565 2.681-2.565h1v4.242a3.686 3.686 0 0 0 3.138 3.738 3.249 3.249 0 0 0 .367.02 3.407 3.407 0 0 0 2.3-.891 3.658 3.658 0 0 0 1.195-2.717v-4.392h2c1.412 0 1.818.74 2.681 2.565.134.286.274.581.424.882.957 1.914 2.927 7.81 2.954 7.891a4.494 4.494 0 0 1 -.595 3.751 1.877 1.877 0 0 1 -1.464.911h-3.086c-.462-2.964-2.879-6-5.914-6s-5.452 3.036-5.914 6h-3.086a1.877 1.877 0 0 1 -1.464-.911zm10.464 6.349-3.986-4.784c.173-2.176 1.941-4.654 3.986-4.654s3.812 2.478 3.986 4.654zm3-.476v3.038a2 2 0 0 1 -4 0v-.638l.232.279a1 1 0 0 0 1.536 0zm-6 0v8.038a1 1 0 0 1 -2 0v-10.438zm-5.095-2.962h1.095v11a3 3 0 0 0 6 0v-1.556a3.959 3.959 0 0 0 2 .556 4 4 0 0 0 4-4v-5.438l.469-.562h2.656l3.733 28h-22.753z"/><path d="m25 21h2v2h-2z"/><path d="m36 21h2v2h-2z"/></g></svg>