<svg height="512" viewBox="0 0 64 64" width="512" xmlns="http://www.w3.org/2000/svg"><g id="Filled_outline" data-name="Filled outline"><path d="m56 30a4 4 0 0 0 -4-4 4 4 0 0 0 -4 4c-5.833 0-7.4-1.419-12-5l-2-2c0-2.761-3.239-5-6-5a6.872 6.872 0 0 0 -5 3 4.691 4.691 0 0 1 -4 2h-16v23h19a25.02 25.02 0 0 0 7-1 25.994 25.994 0 0 1 7-1h8c2 0 2.517-.517 3-1 1.358-1.358 3.079-1 5-1h3a5.936 5.936 0 0 0 6-6v-1.094a4.907 4.907 0 0 0 -4.906-4.906z" fill="#55b56a"/><circle cx="28" cy="24" fill="#143441" r="2"/><g fill="#f4f4e6"><path d="m57 34-4 4-4-4z"/><path d="m49 34-4 5-4-5z"/><path d="m41 34-4 5-4-5z"/></g><path d="m56.911 29.056a5 5 0 0 0 -9.808-.068c-4.523-.126-6-1.277-9.92-4.334l-.52-.405-1.684-1.684c-.304-3.165-3.879-5.565-6.979-5.565a7.907 7.907 0 0 0 -5.845 3.464 3.693 3.693 0 0 1 -3.155 1.536h-16a1 1 0 0 0 -1 1v23a1 1 0 0 0 1 1h19a26.114 26.114 0 0 0 7.274-1.039 24.9 24.9 0 0 1 6.726-.961h8c2.232 0 3-.585 3.707-1.293.773-.774 1.7-.783 3.263-.729.336.011 4.03.022 4.03.022a6.926 6.926 0 0 0 7-7v-1.094a5.916 5.916 0 0 0 -5.089-5.85zm3.089 6.944a4.946 4.946 0 0 1 -5 5s-3.648-.011-3.964-.021c-1.627-.058-3.316-.112-4.743 1.314-.4.4-.707.707-2.293.707h-9c-4.914-.465-11.861-1.684-17.509-4.871a39.034 39.034 0 0 1 -9.75-7.8l-1.482 1.342a41.009 41.009 0 0 0 10.25 8.2 41.08 41.08 0 0 0 12.064 4.206 24.114 24.114 0 0 1 -6.573.923h-.909a20.259 20.259 0 0 1 -11.374-5.7 18.663 18.663 0 0 1 -2.848-3.8l-1.738.99a20.546 20.546 0 0 0 9.213 8.51h-10.344v-21h15a5.7 5.7 0 0 0 4.845-2.465 5.954 5.954 0 0 1 4.155-2.535c2.251 0 5 1.846 5 4a1 1 0 0 0 .293.707l2 2c.029.029.66.524.66.524 4.2 3.274 6.116 4.769 12.047 4.769a1 1 0 0 0 1-1 3 3 0 0 1 6 0 1.084 1.084 0 0 0 1.094 1 3.894 3.894 0 0 1 3.388 2h-28.482a6.253 6.253 0 0 1 -4.293-1.707 8.205 8.205 0 0 0 -5.707-2.293h-9v2h9a6.253 6.253 0 0 1 4.293 1.707 8.205 8.205 0 0 0 5.707 2.293h1.519l3.7 4.625a1 1 0 0 0 1.562 0l3.219-4.025 3.219 4.024a1 1 0 0 0 1.562 0l3.3-4.128 3.21 3.21a1 1 0 0 0 1.414 0l3.709-3.706h2.586zm-5.414-1-1.586 1.586-1.586-1.586zm-7.667 0-1.919 2.4-1.919-2.4zm-8 0-1.919 2.4-1.919-2.4z"/><path d="m28 27a3 3 0 1 0 -3-3 3 3 0 0 0 3 3zm0-4a1 1 0 1 1 -1 1 1 1 0 0 1 1-1z"/><path d="m51 29h2v2h-2z"/><path d="m6 26h2v2h-2z"/><path d="m20 34h2v2h-2z"/><path d="m24 37h2v2h-2z"/></g></svg>