<svg height="512" viewBox="0 0 64 64" width="512" xmlns="http://www.w3.org/2000/svg"><g id="Filled_outline" data-name="Filled outline"><path d="m25 52-3 9h20l-3-9z" fill="#ad6327"/><path d="m32 53a4.242 4.242 0 0 1 -6 0l-1-1v-13l3-3v-3h8v3l3 3v13l-1 1a4.242 4.242 0 0 1 -6 0z" fill="#d3843d"/><path d="m32 50-3-2a3 3 0 0 1 3-3 3 3 0 0 1 3 3z" fill="#301a12"/><path d="m36 36 5.044-3.923a17.573 17.573 0 0 1 9.956-3.077l-3 7a5.268 5.268 0 0 1 -6 2l-3 1z" fill="#ad6327"/><path d="m57 3v8c0 2.761-2.239 3-5 3v-4a4 4 0 0 0 -4 4 4 4 0 0 0 4 4v3a4.012 4.012 0 0 1 -4 4 4 4 0 0 1 -4-4v-1a4 4 0 0 0 -4-4v5a4 4 0 0 1 -4 4v-5c-2.209 0-4 2.791-4 5v8h4a4 4 0 0 1 4-4h8a8.024 8.024 0 0 0 8-8v-3c2.761 0 5-3.239 5-6v-4c0-2.209-1.791-5-4-5z" fill="#ffd782"/><path d="m7 3v8c0 2.761 2.239 3 5 3v-4a4 4 0 0 1 4 4 4 4 0 0 1 -4 4v3a4.012 4.012 0 0 0 4 4 4 4 0 0 0 4-4v-1a4 4 0 0 1 4-4v5a4 4 0 0 0 4 4v-5c2.209 0 4 2.791 4 5v8h-4a4 4 0 0 0 -4-4h-8a8.024 8.024 0 0 1 -8-8v-3c-2.761 0-5-3.239-5-6v-4c0-2.209 1.791-5 4-5z" fill="#f9bb4b"/><path d="m28 36-5.044-3.923a17.573 17.573 0 0 0 -9.956-3.077l3 7a5.268 5.268 0 0 0 6 2l3 1z" fill="#ad6327"/><path d="m57 2a1 1 0 0 0 -1 1v8c0 1.317-.481 1.877-3 1.981v-2.981a1 1 0 0 0 -1-1 5 5 0 0 0 -1 9.9v2.1a3 3 0 0 1 -6 0v-1a5.006 5.006 0 0 0 -5-5 1 1 0 0 0 -1 1v5a3.006 3.006 0 0 1 -2 2.829v-3.829a1 1 0 0 0 -1-1 4.889 4.889 0 0 0 -4 2.615 4.889 4.889 0 0 0 -4-2.615 1 1 0 0 0 -1 1v3.829a3.006 3.006 0 0 1 -2-2.829v-5a1 1 0 0 0 -1-1 5.006 5.006 0 0 0 -5 5v1a3 3 0 0 1 -6 0v-2.1a5 5 0 0 0 -1-9.9 1 1 0 0 0 -1 1v2.981c-2.519-.1-3-.664-3-1.981v-8a1 1 0 0 0 -1-1c-2.816 0-5 3.226-5 6v4c0 2.91 2.118 6.244 5 6.889v2.111a9 9 0 0 0 5.009 8.055.976.976 0 0 0 .072.339s3.061 7.124 3.1 7.179a6.178 6.178 0 0 0 6.771 2.465l2.048.683v12.116l-2.949 8.847a1 1 0 0 0 .949 1.316h20a1 1 0 0 0 .949-1.316l-2.949-8.847v-12.116l2.048-.683a6.176 6.176 0 0 0 6.771-2.465c.039-.055 3.1-7.179 3.1-7.179a.976.976 0 0 0 .072-.339 9 9 0 0 0 5.009-8.055v-2.111c2.882-.645 5-3.979 5-6.889v-4c0-2.774-2.184-6-5-6zm-22 32v2a1 1 0 0 0 .293.707l2.707 2.707v12.172l-.707.707a3.321 3.321 0 0 1 -4.293.236v-1.994l2.555-1.7a1 1 0 0 0 .445-.835 4 4 0 0 0 -8 0 1 1 0 0 0 .445.832l2.555 1.703v1.994a3.321 3.321 0 0 1 -4.293-.236l-.707-.707v-12.172l2.707-2.707a1 1 0 0 0 .293-.707v-2zm-3 14.8-1.938-1.292a2 2 0 0 1 3.876 0zm-5-14.844-3.43-2.668a12.637 12.637 0 0 0 -2.094-1.288h2.524a3 3 0 0 1 3 3zm-18-12.956v-3a1 1 0 0 0 -1-1c-2.154 0-4-2.749-4-5v-4a4.737 4.737 0 0 1 2-3.7v6.7c0 4 3.9 4 6 4a1 1 0 0 0 1-1v-2.829a3 3 0 0 1 -1 5.829 1 1 0 0 0 -1 1v3a5 5 0 0 0 10 0v-1a3.006 3.006 0 0 1 2-2.829v3.829a5.006 5.006 0 0 0 5 5 1 1 0 0 0 1-1v-3.7a4.737 4.737 0 0 1 2 3.7v7h-2.1a5.008 5.008 0 0 0 -4.9-4h-8a7.008 7.008 0 0 1 -7-7zm13.316 16.052a.969.969 0 0 0 -.559-.022 4.254 4.254 0 0 1 -4.881-1.523l-2.325-5.427a16.135 16.135 0 0 1 7.791 2.786l4.15 3.228-1.762 1.762zm18.297 22.948h-17.226l2.057-6.169a5.212 5.212 0 0 0 6.556.469 5.212 5.212 0 0 0 6.556-.47zm6.511-24.493a4.254 4.254 0 0 1 -4.881 1.523.968.968 0 0 0 -.559.022l-2.414.8-1.762-1.762 4.15-3.228a16.135 16.135 0 0 1 7.791-2.786zm-10.124-1.551v-.956a3 3 0 0 1 3-3h2.524a12.637 12.637 0 0 0 -2.094 1.288zm23-21.956c0 2.251-1.846 5-4 5a1 1 0 0 0 -1 1v3a7.008 7.008 0 0 1 -7 7h-8a5.008 5.008 0 0 0 -4.9 4h-2.1v-7a4.737 4.737 0 0 1 2-3.7v3.7a1 1 0 0 0 1 1 5.006 5.006 0 0 0 5-5v-3.829a3.006 3.006 0 0 1 2 2.829v1a5 5 0 0 0 10 0v-3a1 1 0 0 0 -1-1 3 3 0 0 1 -1-5.829v2.829a1 1 0 0 0 1 1c2.1 0 6 0 6-4v-6.7a4.737 4.737 0 0 1 2 3.7z"/><path d="m28 40h2v2h-2z"/><path d="m34 40h2v2h-2z"/></g></svg>