<svg height="512" viewBox="0 0 64 64" width="512" xmlns="http://www.w3.org/2000/svg"><g id="Filled_outline" data-name="Filled outline"><path d="m19 61h33l2-6a96.833 96.833 0 0 0 6-33c0-10.493-6.507-19-17-19-6.2 0-13.868 3.392-15 9a7.3 7.3 0 0 1 -2 4c-.552 1.472-1.112 4.888 0 6a.121.121 0 0 0 .02.019c2.863 1.9 4.989 3.955 3.98 6.981l-2 3h8a27.406 27.406 0 0 1 -8 20z" fill="#55b56a"/><path d="m9.929 25h-.929a5 5 0 0 0 -5 5 2 2 0 0 0 2 2h22l2-3c1-3.009-1-5-3.943-6.948a.36.36 0 0 1 -.057-.052c-1.112-1.112-.552-4.528 0-6l-4 4a17.073 17.073 0 0 1 -12.071 5z" fill="#f9bb4b"/><path d="m41 55c-4.74-.833-8.378-3.813-10.756-5.543a28.01 28.01 0 0 1 -2.244 2.543l-9 9h33l2-6c.223-.613.42-1.236.632-1.853a21.75 21.75 0 0 1 -13.632 1.853z" fill="#3e8051"/><path d="m56.067 48.628a29.237 29.237 0 0 1 -14.067 1.372 29.245 29.245 0 0 1 -9.524-3.885 26.631 26.631 0 0 1 -2.232 3.342c2.378 1.73 6.016 4.71 10.756 5.543a21.75 21.75 0 0 0 13.632-1.853q.768-2.247 1.435-4.519z" fill="#ffd782"/><path d="m22 26h2v2h-2z"/><path d="m18.293 60.293a1 1 0 0 0 .707 1.707h33a1 1 0 0 0 .949-.684l1.991-5.974a97.461 97.461 0 0 0 6.06-33.342c0-11.589-7.57-20-18-20-6.733 0-14.758 3.748-15.98 9.8a6.266 6.266 0 0 1 -1.727 3.491l-4 4a15.968 15.968 0 0 1 -11.364 4.709h-.929a6.006 6.006 0 0 0 -6 6 3 3 0 0 0 3 3h28.985a26.1 26.1 0 0 1 -7.692 18.293zm10.8-31.731-1.628 2.438h-21.465a1 1 0 0 1 -1-1 4 4 0 0 1 4-4h.929a17.953 17.953 0 0 0 12.778-5.293l1.678-1.678a4.807 4.807 0 0 0 .907 3.677 1.6 1.6 0 0 0 .213.18c3.207 2.123 4.195 3.675 3.585 5.676zm7.888 4.455a13.263 13.263 0 0 0 13-10.828l-1.964-.378a11.48 11.48 0 0 1 -3.675 6.435 11.8 11.8 0 0 1 -8.277 2.754h-.065-6.132s1.052-1.6 1.081-1.684c1.246-3.739-1.44-6.167-4.265-8.048-.55-.624-.353-3.15.2-4.75a8.263 8.263 0 0 0 2.1-4.32c.986-4.904 8.045-8.198 14.016-8.198 9.42 0 16 7.4 16 18a93.551 93.551 0 0 1 -3.738 25.823 27.311 27.311 0 0 1 -13.089 1.192 26.272 26.272 0 0 1 -8.338-3.28 29.177 29.177 0 0 0 3.143-12.718zm-4.132 14.458a28.023 28.023 0 0 0 8.978 3.51 24.958 24.958 0 0 0 4.322.37 31.275 31.275 0 0 0 8.437-1.243c-.238.764-.5 1.526-.757 2.289a20.553 20.553 0 0 1 -12.656 1.614c-4-.7-7.176-3.028-9.515-4.759.423-.58.818-1.175 1.191-1.781zm-2.426 3.355c2.366 1.752 5.919 4.367 10.4 5.155a25.065 25.065 0 0 0 4.356.4 21.284 21.284 0 0 0 7.794-1.473l-1.694 5.088h-29.865l7.293-7.293c.607-.607 1.175-1.235 1.716-1.877z"/><path d="m36 15h2v2h-2z"/><path d="m52 44h2v2h-2z"/><path d="m48 41h2v2h-2z"/></g></svg>