<?xml version="1.0" encoding="UTF-8"?>
<svg xmlns="http://www.w3.org/2000/svg" viewBox="0 0 64 64" width="512" height="512"><g id="Filled_outline" data-name="Filled outline"><path d="M24,22V20.075C22.981,19.038,22,18,22,18a8.251,8.251,0,0,1-2-6,8.988,8.988,0,0,1,3.949-7.448A1.964,1.964,0,0,0,22,3H17C10.181,3,4.575,8.82,6,16c.737,3.713,4.215,6,8,6a4.012,4.012,0,0,1,4,4,4,4,0,0,0,4,4h2Z" style="fill:#aabece"/><path d="M47,3H42a1.962,1.962,0,0,0-1.934,1.5A8.894,8.894,0,0,1,44,12c0,2.438-.276,4.276-2,6,0,0-.981,1.038-2,2.075V30h2a4,4,0,0,0,4-4,4.012,4.012,0,0,1,4-4c3.785,0,7.263-2.287,8-6C59.425,8.82,53.819,3,47,3Z" style="fill:#aabece"/><path d="M42,34a2,2,0,0,1-2-2V20.075c-.789.8-1.6,1.605-2,1.925-1.506,1.209-2,4.059-2,5.99V33a5,5,0,0,0,5,5,4,4,0,0,0,4-4Z" style="fill:#f4f4e6"/><path d="M28,33V27.99c0-1.931-.494-4.781-2-5.99-.4-.32-1.211-1.122-2-1.925V32a2,2,0,0,1-2,2H19a4,4,0,0,0,4,4A5,5,0,0,0,28,33Z" style="fill:#f4f4e6"/><path d="M20,12h0a8.251,8.251,0,0,0,2,6s3.087,3.267,4,4c1.506,1.209,2,4.059,2,5.99V42a24.761,24.761,0,0,0,1,8l1.051,2A2.147,2.147,0,0,1,28,55H24l2,3-2,3h5a7,7,0,0,0,7-7V27.99c0-1.931.494-4.781,2-5.99.913-.733,4-4,4-4,1.724-1.724,2-3.562,2-6h0a8.867,8.867,0,0,0-9-9H29A9,9,0,0,0,20,12Z" style="fill:#7d8d9c"/><path d="M42,31a5.006,5.006,0,0,0,5-5,3,3,0,0,1,3-3c4.493,0,8.186-2.8,8.981-6.8a11.522,11.522,0,0,0-2.368-9.731A12.357,12.357,0,0,0,47,2H42a2.981,2.981,0,0,0-2.333,1.125A10.121,10.121,0,0,0,35,2H29a9.927,9.927,0,0,0-4.64,1.15A2.975,2.975,0,0,0,22,2H17A12.357,12.357,0,0,0,7.387,6.464,11.522,11.522,0,0,0,5.019,16.2C5.814,20.2,9.507,23,14,23a3,3,0,0,1,3,3,5.006,5.006,0,0,0,5,5h1v1a1,1,0,0,1-1,1H19a1,1,0,0,0-1,1,5.006,5.006,0,0,0,5,5,5.969,5.969,0,0,0,4-1.54V42a25.45,25.45,0,0,0,1.051,8.316.983.983,0,0,0,.064.149l1.01,1.921a1.347,1.347,0,0,1-.134,1.172A1.161,1.161,0,0,1,28,54H24a1,1,0,0,0-.832,1.555L24.8,58l-1.63,2.445A1,1,0,0,0,24,62h5a8.009,8.009,0,0,0,8-8V37.46A5.969,5.969,0,0,0,41,39a5.006,5.006,0,0,0,5-5,1,1,0,0,0-1-1H42a1,1,0,0,1-1-1V31ZM42,4h5a10.363,10.363,0,0,1,8.067,3.734,9.553,9.553,0,0,1,1.952,8.071C56.412,18.864,53.526,21,50,21a5.006,5.006,0,0,0-5,5,3,3,0,0,1-3,3H41V20.484c.827-.847,1.562-1.623,1.707-1.777C44.823,16.591,45,14.233,45,12a9.933,9.933,0,0,0-3.642-7.772A.991.991,0,0,1,42,4ZM22,29a3,3,0,0,1-3-3,5.006,5.006,0,0,0-5-5c-3.526,0-6.412-2.136-7.019-5.195A9.553,9.553,0,0,1,8.933,7.734,10.363,10.363,0,0,1,17,4h5a.992.992,0,0,1,.675.262A9.985,9.985,0,0,0,19,12c0,2.929.771,5.186,2.273,6.687.155.163.9.946,1.727,1.8V29Zm5,4a4,4,0,0,1-4,4,3.006,3.006,0,0,1-2.829-2H22a3,3,0,0,0,3-3V22.454c.142.13.271.243.374.326,1.117.9,1.626,3.329,1.626,5.21Zm8,21a6.006,6.006,0,0,1-6,6H25.869l.963-1.445a1,1,0,0,0,0-1.11L25.869,56H28a3.525,3.525,0,0,0,.528-.058l1.765,1.765,1.414-1.414-1.322-1.322a2.766,2.766,0,0,0,.228-.244A3.04,3.04,0,0,0,30.994,54H33V52H31.069c-.026-.106-.034-.211-.069-.316-.017-.052-1.076-2.076-1.076-2.076A23.845,23.845,0,0,1,29,42V38.509A9.448,9.448,0,0,0,32,39a9.621,9.621,0,0,0,3-.492Zm0-17.648A7.671,7.671,0,0,1,32,37a7.459,7.459,0,0,1-3-.632V34.509A9.448,9.448,0,0,0,32,35a9.621,9.621,0,0,0,3-.492Zm0-4A7.671,7.671,0,0,1,32,33a7.459,7.459,0,0,1-3-.632V30.509A9.448,9.448,0,0,0,32,31a9.621,9.621,0,0,0,3-.492ZM42,35h1.829A3.006,3.006,0,0,1,41,37a4,4,0,0,1-4-4V27.99c0-1.881.509-4.314,1.626-5.21.1-.083.232-.2.374-.326V32A3,3,0,0,0,42,35ZM37.374,21.22C35.114,23.034,35,27.178,35,27.99v.362A7.671,7.671,0,0,1,32,29a7.459,7.459,0,0,1-3-.632V27.99c0-.812-.114-4.956-2.374-6.77-.705-.566-3.054-3.012-3.919-3.927C21.559,16.144,21,14.413,21,12a8.009,8.009,0,0,1,8-8h6a7.824,7.824,0,0,1,8,8c0,2.378-.264,3.85-1.727,5.313C40.428,18.208,38.08,20.654,37.374,21.22Z"/><rect x="24" y="14" width="2" height="2"/><rect x="39" y="14" width="2" height="2"/><path d="M32,17a6.176,6.176,0,0,0-4.8,2.4l1.6,1.2a4,4,0,0,1,6.4,0l1.6-1.2A6.173,6.173,0,0,0,32,17Z"/><path d="M10.149,9.475A7.976,7.976,0,0,0,9,14.057l2-.114a5.936,5.936,0,0,1,.852-3.418,6.015,6.015,0,0,1,3.422-2.563l-.546-1.924A8.046,8.046,0,0,0,10.149,9.475Z"/><rect x="10" y="16" width="2" height="2"/><rect x="52" y="15" width="2" height="2"/><rect x="49" y="11" width="2" height="2"/></g></svg>
