<svg height="512" viewBox="0 0 64 64" width="512" xmlns="http://www.w3.org/2000/svg"><g id="Filled_outline" data-name="Filled outline"><path d="m56 29 1-2-9-13-16 3-16-3-8 13 1 2c.822 1.644-.162 4-2 4a4 4 0 0 0 -4 4c0 1.576.562 3.355 2 4l23 10a9.63 9.63 0 0 0 8 0l23-10c1.438-.645 2-2.424 2-4a4 4 0 0 0 -4-4c-1.71 0-1.948-2.577-1-4z" fill="#8ec13f"/><circle cx="11" cy="20" fill="#f4f4e6" r="8"/><circle cx="53" cy="20" fill="#f4f4e6" r="8"/><circle cx="11" cy="20" fill="#394d5c" r="4"/><circle cx="53" cy="20" fill="#394d5c" r="4"/><path d="m7 32a4.995 4.995 0 0 0 -5 5 6.906 6.906 0 0 0 .544 2.752 4.074 4.074 0 0 0 2.056 2.165l22.992 10a10.578 10.578 0 0 0 8.8 0l23.008-10c1.918-.853 2.6-3.099 2.6-4.917a4.995 4.995 0 0 0 -5-5c-.534 0-.55-.96-.55-1.07a2.569 2.569 0 0 1 .382-1.375c.022-.034.994-1.971.994-1.971a8.991 8.991 0 1 0 -10.626-14.45l-15.2 2.848-15.195-2.848a9 9 0 1 0 -9.266 15.172l.566 1.141a2.055 2.055 0 0 1 -.116 1.935 1.17 1.17 0 0 1 -.989.618zm46-19a7 7 0 1 1 -7 7 7.008 7.008 0 0 1 7-7zm-49 7a7 7 0 1 1 7 7 7.008 7.008 0 0 1 -7-7zm5.69 12.433a4.1 4.1 0 0 0 .37-3.483 9.113 9.113 0 0 0 .94.05 8.985 8.985 0 0 0 7.809-13.455l13.006 2.438a1.015 1.015 0 0 0 .37 0l13.006-2.438a8.98 8.98 0 0 0 9.8 13.227 4.659 4.659 0 0 0 -.537 2.158c-.004 1.808 1.046 3.07 2.546 3.07a2.994 2.994 0 0 1 3 3c0 1.135-.368 2.625-1.4 3.083l-23.008 10a8.636 8.636 0 0 1 -7.2 0l-22.992-10a2.093 2.093 0 0 1 -1.032-1.142 4.9 4.9 0 0 1 -.368-1.941 2.994 2.994 0 0 1 3-3 3.136 3.136 0 0 0 2.69-1.567z"/><path d="m24 30h2v2h-2z"/><path d="m38 30h2v2h-2z"/><path d="m31.661 46.941a1 1 0 0 0 .678 0l25-9-.678-1.882-24.661 8.878-24.661-8.878-.678 1.882z"/><path d="m32 29a1 1 0 0 0 .555-.168l9-6-1.11-1.664-8.445 5.632-8.445-5.63-1.11 1.664 9 6a1 1 0 0 0 .555.166z"/><path d="m16 20a5 5 0 1 0 -5 5 5.006 5.006 0 0 0 5-5zm-8 0a3 3 0 1 1 3 3 3 3 0 0 1 -3-3z"/><path d="m53 25a5 5 0 1 0 -5-5 5.006 5.006 0 0 0 5 5zm0-8a3 3 0 1 1 -3 3 3 3 0 0 1 3-3z"/></g></svg>