<svg height="512" viewBox="0 0 64 64" width="512" xmlns="http://www.w3.org/2000/svg"><g id="Filled_outline" data-name="Filled outline"><path d="m44 11v-2a6 6 0 0 0 -6-6h-12a6 6 0 0 0 -6 6v2l-7 17c-1.024 2.559-1 4.244-1 7v6a20 20 0 0 0 20 20 20 20 0 0 0 20-20v-6c0-2.756.024-4.441-1-7z" fill="#394d5c"/><path d="m39 29h-2a5.262 5.262 0 0 0 -5 5 5.262 5.262 0 0 0 -5-5h-2a5 5 0 0 0 0 10h14a5 5 0 0 0 0-10z" fill="#f4f4e6"/><path d="m37 45h-10c-3.314 0-5 2.686-5 6a4 4 0 0 0 4 4h12a4 4 0 0 0 4-4c0-3.314-1.686-6-5-6z" fill="#5a6470"/><path d="m29 39a3 3 0 0 1 3 3v3a0 0 0 0 1 0 0h-3a3 3 0 0 1 -3-3 3 3 0 0 1 3-3z" fill="#143441"/><path d="m35 39a3 3 0 0 1 3 3 3 3 0 0 1 -3 3h-3a0 0 0 0 1 0 0v-3a3 3 0 0 1 3-3z" fill="#143441"/><path d="m38 2h-12a7.008 7.008 0 0 0 -7 7v1.8l-6.929 16.829a16.716 16.716 0 0 0 -1.071 7.19v6.181a21 21 0 0 0 42 0v-6.181a16.726 16.726 0 0 0 -1.075-7.2l-6.925-16.819v-1.8a7.008 7.008 0 0 0 -7-7zm12.071 26.371a14.962 14.962 0 0 1 .929 6.448v6.181a19 19 0 0 1 -38 0v-6.181a14.953 14.953 0 0 1 .925-6.438l7-17a1 1 0 0 0 .075-.381v-2a5.006 5.006 0 0 1 5-5h12a5.006 5.006 0 0 1 5 5v2a1 1 0 0 0 .075.381z"/><path d="m37 28a5.93 5.93 0 0 0 -5 2.87 5.93 5.93 0 0 0 -5-2.87h-2a6 6 0 0 0 0 12h.556a3.91 3.91 0 0 0 .081 4.149c-2.822.626-4.637 3.22-4.637 6.851a5.006 5.006 0 0 0 5 5h12a5.006 5.006 0 0 0 5-5c0-3.631-1.815-6.225-4.637-6.851a3.91 3.91 0 0 0 .081-4.149h.556a6 6 0 0 0 0-12zm-10 18h4v2.033a15.577 15.577 0 0 0 -8 2.867c.033-2.39 1.093-4.9 4-4.9zm1.293-4.707-1.218 1.218a1.96 1.96 0 0 1 -.075-.511 2 2 0 0 1 4 0v2h-2a1.96 1.96 0 0 1 -.511-.075l1.218-1.218zm9.707 12.707h-12a2.984 2.984 0 0 1 -2.32-1.121 13.587 13.587 0 0 1 8.32-2.879 13.774 13.774 0 0 1 8.321 2.878 2.987 2.987 0 0 1 -2.321 1.122zm3-3.116a15.8 15.8 0 0 0 -8-2.845v-2.039h4c2.9 0 3.964 2.5 4 4.884zm-5.486-6.959a1.96 1.96 0 0 1 -.514.075h-2v-2a2 2 0 0 1 4 0 1.96 1.96 0 0 1 -.075.511l-1.218-1.218-1.414 1.414zm7.486-9.925a4 4 0 0 1 -4 4h-14a4 4 0 0 1 0-8h2a4.288 4.288 0 0 1 4 4 1 1 0 0 0 2 0 4.288 4.288 0 0 1 4-4h2a4 4 0 0 1 4 4z"/><path d="m28.494 23.711a7.549 7.549 0 0 1 2.518 2.439 1 1 0 0 0 .722.814 1.02 1.02 0 0 0 .266.036 1 1 0 0 0 .859-.489 7.548 7.548 0 0 1 2.647-2.648 7.857 7.857 0 0 1 5.309-.88l.37-1.966a9.72 9.72 0 0 0 -6.691 1.121 9.452 9.452 0 0 0 -2.432 2.055 9.429 9.429 0 0 0 -2.556-2.208 9.742 9.742 0 0 0 -6.691-1.12l.37 1.966a7.854 7.854 0 0 1 5.309.88z"/><path d="m25 33h2v2h-2z"/><path d="m37 33h2v2h-2z"/><path d="m31.445 12.832a1 1 0 0 0 1.11 0l2.745-1.832h5.7v-2h-6a1.006 1.006 0 0 0 -.555.168l-2.445 1.632-2.445-1.63a1.006 1.006 0 0 0 -.555-.17h-6v2h5.7z"/><path d="m46 46h2v2h-2z"/><path d="m43 43h2v2h-2z"/></g></svg>