<?xml version="1.0" encoding="UTF-8"?>
<svg xmlns="http://www.w3.org/2000/svg" viewBox="0 0 64 64" width="512" height="512"><g id="Filled_outline" data-name="Filled outline"><path d="M30,61l-1.586-1.586A4.828,4.828,0,0,0,25,58H11a8.024,8.024,0,0,1-8-8H3a7.242,7.242,0,0,1,2.121-5.121L20,30h0A10,10,0,0,0,10,20H9a4,4,0,0,1-4-4V13A6.619,6.619,0,0,1,8,7l5-3a10.138,10.138,0,0,1,4-1h0a6.748,6.748,0,0,1,5,3h0a6.207,6.207,0,0,1,5-3h0a7.224,7.224,0,0,1,5,2l9,10a1.412,1.412,0,0,0,1.977.023,5.674,5.674,0,0,1,8.069.023A3.4,3.4,0,0,1,52,17.421V21l3.172-3.172A1.657,1.657,0,0,1,58,19v4l3,3V61Z" style="fill:#66342e"/><path d="M39,46c-.1-4.35-2.966-5.746-2-9,.735-2.477,2.707-2.723,3-5,.206-1.6-.541-3.255-3-6-2.685-3-7.751-8.651-17-11-4.59-1.166-6.865-1.168-8-1a15.366,15.366,0,0,0-6.885,2.916A4,4,0,0,0,9,20h1A10,10,0,0,1,20,30L5.121,44.879A7.242,7.242,0,0,0,3,50a8.024,8.024,0,0,0,8,8H25a4.822,4.822,0,0,1,.637.063L26,58a12.616,12.616,0,0,0,9-3A12.016,12.016,0,0,0,39,46Z" style="fill:#f98c96"/><path d="M29,52h0a3,3,0,0,1-3-3V43c0-1.657,3-7,3-7h0s3,5.343,3,7v6A3,3,0,0,1,29,52Z" style="fill:#efeec5"/><path d="M6,49H6a3,3,0,0,1-3-3V40c0-4,6-7,6-7H9V46A3,3,0,0,1,6,49Z" style="fill:#efeec5"/><path d="M15,48h0c-1.105,0-2,.1-2-1V45c0-1.1,2-4,2-4h0s2,2.9,2,4v2C17,48.105,16.105,48,15,48Z" style="fill:#efeec5"/><path d="M20,49h0a2,2,0,0,1-2-2V45c0-1.1,2-4,2-4h0s2,2.9,2,4v2A2,2,0,0,1,20,49Z" style="fill:#efeec5"/><path d="M59,22.586V19a2.655,2.655,0,0,0-4.537-1.877L53,18.586V17.42a4.443,4.443,0,0,0-1.235-3.069,6.619,6.619,0,0,0-4.755-2,6.755,6.755,0,0,0-4.737,1.966.4.4,0,0,1-.269.1.438.438,0,0,1-.261-.084l-9-10a6.917,6.917,0,0,0-2.675-1.743A8.819,8.819,0,0,0,27,2a6.245,6.245,0,0,0-3.372,1.013A7.894,7.894,0,0,0,21.982,4.4a8.549,8.549,0,0,0-1.639-1.322A6.377,6.377,0,0,0,17,2a11.081,11.081,0,0,0-4.515,1.143l-5,3A7.584,7.584,0,0,0,4,13v3a5.006,5.006,0,0,0,5,5h1A9,9,0,0,1,18.991,29.6L10,38.586V33a1,1,0,0,0-1.447-.9C8.285,32.239,2,35.435,2,40v6a3.969,3.969,0,0,0,.357,1.634A8.209,8.209,0,0,0,2,50a9.011,9.011,0,0,0,9,9H25a3.847,3.847,0,0,1,2.7,1.117l1.59,1.59A1,1,0,0,0,30,62H61a1,1,0,0,0,1-1V26a1,1,0,0,0-.293-.707ZM4,40c0-2.09,2.248-4.075,4-5.248V46a2,2,0,0,1-4,0ZM26.061,57,11,57a7.008,7.008,0,0,1-7-7c0-.178.031-.354.046-.531a3.856,3.856,0,0,0,3.7.112,27.579,27.579,0,0,1,3.364-.587c8.5-.952,15.776,2.12,20.377,4.865l1.024-1.718c-.2-.122-.42-.244-.634-.367A3.986,3.986,0,0,0,33,49V43c0-.545-.166-1.611-1.6-4.558l-.137-.277A9.79,9.79,0,0,0,34,30.942c-.211-3.609-3.187-5.832-4.165-6.562-.082-.061-.145-.107-.183-.139l-1.3,1.517c.058.05.157.126.289.224.794.593,3.209,2.4,3.364,5.076a7.683,7.683,0,0,1-1.728,5.188c-.23-.429-.387-.71-.4-.734A1,1,0,0,0,29,35h0a1,1,0,0,0-.872.51C27.606,36.44,25,41.171,25,43v5.652q-1.061-.361-2.189-.669A2.953,2.953,0,0,0,23,47V45a6.1,6.1,0,0,0-1.133-2.909c-.515-.9-1.024-1.631-1.046-1.661A1,1,0,0,0,20,40h0a1,1,0,0,0-.822.432A21.042,21.042,0,0,0,17.5,43.285c-.158-.336-.361-.727-.632-1.194-.515-.9-1.024-1.631-1.046-1.661A1,1,0,0,0,15,40h0a1,1,0,0,0-.822.432C13.522,41.381,12,43.726,12,45v1.913c-.369.028-.737.051-1.111.093s-.722.1-1.081.155A3.955,3.955,0,0,0,10,46V41.414l10.02-10.02,4.664,1.555.632-1.9-4.335-1.445A10.983,10.983,0,0,0,10,19H9a2.994,2.994,0,0,1-2.681-1.681,14.07,14.07,0,0,1,5.828-2.33c1.079-.161,3.273-.12,7.607.98,8.954,2.274,13.864,7.754,16.5,10.7s2.878,4.237,2.753,5.2a3.242,3.242,0,0,1-1.135,1.936,6.8,6.8,0,0,0-1.831,2.907c-.623,2.095.084,3.595.768,5.046A9.8,9.8,0,0,1,38,46.024a11.023,11.023,0,0,1-3.667,8.23A11.521,11.521,0,0,1,26.061,57ZM14,46.823V45a7.5,7.5,0,0,1,1-2.143c.045.077.091.155.136.234A5.456,5.456,0,0,1,16,45v1.867Q15.015,46.813,14,46.823ZM19,47V45a7.5,7.5,0,0,1,1-2.143c.045.077.091.155.136.234A5.456,5.456,0,0,1,21,45v2a.961.961,0,0,1-.16.51c-.595-.124-1.2-.238-1.814-.332A.98.98,0,0,1,19,47Zm8,2V43a19,19,0,0,1,2-4.884c.19.37.4.779.6,1.2C30.933,42.052,31,42.865,31,43v6a1.971,1.971,0,0,1-1.057,1.734c-.906-.457-1.872-.9-2.9-1.322A2.026,2.026,0,0,1,27,49ZM60,60H30.414l-1.2-1.2a12.841,12.841,0,0,0,6.455-3.052A13.083,13.083,0,0,0,40,45.976a11.78,11.78,0,0,0-1.381-5.067c-.641-1.362-1.065-2.261-.661-3.624a4.854,4.854,0,0,1,1.365-2.1,5.937,5.937,0,0,0,1.416-2.031l2.554,2.553,1.414-1.414-3.78-3.78c-.3-1.479-1.287-3.065-3.182-5.18a41.532,41.532,0,0,0-6.613-6.195,5.891,5.891,0,0,0,.5-.363c2.807-2.288,2.458-6.153,2.36-6.9l-1.984.26c.046.348.387,3.443-1.639,5.1a4.146,4.146,0,0,1-1.132.624,31.464,31.464,0,0,0-8.991-3.818c-3.736-.948-6.559-1.291-8.393-1.02A15.884,15.884,0,0,0,6,15.129V13A5.693,5.693,0,0,1,8.515,7.857L13.5,4.868A9.249,9.249,0,0,1,17,4a4.418,4.418,0,0,1,2.284.771,6.309,6.309,0,0,1,1.884,1.784A1,1,0,0,0,22,7h0a1,1,0,0,0,.832-.448A6.284,6.284,0,0,1,24.7,4.7a5.1,5.1,0,0,1,4.653-.247,4.961,4.961,0,0,1,1.9,1.215l9.036,10.038a2.4,2.4,0,0,0,3.4.015A4.6,4.6,0,0,1,47,14.347h.01a4.634,4.634,0,0,1,3.327,1.4A2.423,2.423,0,0,1,51,17.42V21a1,1,0,0,0,1.707.707l3.17-3.17A.655.655,0,0,1,57,19v2a6.139,6.139,0,0,1-1.707,3.293,3.465,3.465,0,0,0-1.054,3.183,5.55,5.55,0,0,0,1.64,2.817l.414.414,1.414-1.414-.414-.414c-1.247-1.247-1.444-2.314-.586-3.172a8.9,8.9,0,0,0,1.136-1.45L60,26.414Z"/><rect x="46" y="19" width="2" height="2"/><path d="M55.026,33.227A18.524,18.524,0,0,1,42.691,55.049l.618,1.9A20.523,20.523,0,0,0,56.974,32.773Z"/><path d="M48.844,40.536A21.21,21.21,0,0,0,52,27.935l-2,.13a19.189,19.189,0,0,1-2.846,11.4,18.5,18.5,0,0,1-5.695,5.694l1.078,1.684A20.464,20.464,0,0,0,48.844,40.536Z"/><rect x="16" y="6" width="2" height="2"/><rect x="26" y="7" width="2" height="2"/></g></svg>
