<svg height="512" viewBox="0 0 64 64" width="512" xmlns="http://www.w3.org/2000/svg"><g id="Filled_outline" data-name="Filled outline"><path d="m32 61s-13-8.82-13-16v-20a9.848 9.848 0 0 1 2.034-6l1.966-2h18l1.966 2a9.848 9.848 0 0 1 2.034 6v20c0 7.18-13 16-13 16z" fill="#d3843d"/><path d="m35 11h-6l-6 6v15a40.1 40.1 0 0 0 1 7l2 9h12l2-9a40.1 40.1 0 0 0 1-7v-15z" fill="#ad6327"/><path d="m30 44h4a4 4 0 0 1 4 4 6 6 0 0 1 -6 6 6 6 0 0 1 -6-6 4 4 0 0 1 4-4z" fill="#66342e"/><path d="m35 11v-2c0-3 3-6 3-6s3 2 3 5v9z" fill="#d3843d"/><path d="m29 11v-2c0-3-3-6-3-6s-3 2-3 5v9z" fill="#d3843d"/><path d="m29 11h6a0 0 0 0 1 0 0v6a3 3 0 0 1 -3 3 3 3 0 0 1 -3-3v-6a0 0 0 0 1 0 0z" fill="#f9bb4b"/><path d="m26.707 2.293a1 1 0 0 0 -1.262-.125c-.14.094-3.445 2.337-3.445 5.832v8.591s-1.725 1.758-1.746 1.784a10.915 10.915 0 0 0 -2.254 6.625v20c0 7.622 12.89 16.455 13.438 16.828a1 1 0 0 0 1.124 0c.548-.373 13.438-9.206 13.438-16.828v-20a10.915 10.915 0 0 0 -2.254-6.625c-.021-.026-1.746-1.784-1.746-1.784v-8.591c0-3.495-3.3-5.738-3.445-5.832a1 1 0 0 0 -1.262.125c-.135.134-3.293 3.332-3.293 6.707v1h-4v-1c0-3.375-3.158-6.573-3.293-6.707zm-2.707 5.707a5.253 5.253 0 0 1 1.887-3.622c.797.97 2.113 2.841 2.113 4.622v1.586l-.245.244-.923-1.385-1.664 1.11 1.145 1.718-2.313 2.313zm18 24v-12.556l.215.22a8.862 8.862 0 0 1 1.785 5.336v20c0 5.178-8.187 12.073-12 14.782-3.813-2.709-12-9.604-12-14.782v-20a8.862 8.862 0 0 1 1.785-5.336l.215-.22v12.556a41.236 41.236 0 0 0 1.024 7.217l1.983 8.924a6.994 6.994 0 0 0 13.986 0l1.982-8.918a41.291 41.291 0 0 0 1.025-7.223zm-15 16a3 3 0 0 1 3-3h4a3 3 0 0 1 3 3 5 5 0 0 1 -10 0zm9-39c0-1.781 1.316-3.652 2.113-4.622a5.249 5.249 0 0 1 1.887 3.622v6.586l-2.313-2.313 1.145-1.718-1.664-1.11-.923 1.385-.245-.244zm0 8v-3.586l4 4v14.586a39.485 39.485 0 0 1 -.976 6.783l-1.311 5.9a4.968 4.968 0 0 0 -3.713-1.683h-1v-15h-2v15h-1a4.968 4.968 0 0 0 -3.713 1.683l-1.312-5.906a39.429 39.429 0 0 1 -.975-6.777v-14.586l4-4v3.586a4 4 0 0 0 8 0zm-2-5v5a2 2 0 0 1 -4 0v-5z"/><path d="m26 24h2v2h-2z"/><path d="m36 24h2v2h-2z"/><path d="m29 47h2v2h-2z"/><path d="m33 47h2v2h-2z"/></g></svg>