<svg height="512" viewBox="0 0 64 64" width="512" xmlns="http://www.w3.org/2000/svg"><g id="Filled_outline" data-name="Filled outline"><path d="m3 37c8.1-4.235 11.967-9.173 14-13 3.061-5.762 3.593-9.83 8-16 5-7 17-6 20-1 .824 1.373.307 3 0 4 0 0 11.929 7.929 13 9 4 4 3.559 9.072 1 12-1.843 2.108-4.169 2.59-7 3-2.922.423-4.116 0-5 1-1.335 1.515.582 3.4 0 7-.54 3.334-2.531 3.832-4 8-.852 2.419-1 8.578-1 10h-39z" fill="#d3d2c1"/><path d="m45 11a9.734 9.734 0 0 0 -4-2 10.354 10.354 0 0 0 -7 1c-.752.372-5.222 2.584-6 7-.732 4.155 2.055 8.836 7 11-.174 1.016-1.28 3.405-1 5a8.811 8.811 0 0 0 5 6c2.451.973 5.762-.218 8-3 .884-1 2.078-.577 5-1 2.831-.41 5.157-.892 7-3 2.559-2.928 3-8-1-12-1.071-1.071-13-9-13-9z" fill="#e8e8e8"/><path d="m26 12c0 2.371-3.639 4.461-5.95 4.989l-.05.011a9.279 9.279 0 0 0 -7 7c-.46 2.446-.105 6.917 3 8 2.578.9 6.2.2 7-3 1-4-4.555-5.347-4-7 .379-1.129 2.991-1.536 5-1 3.438.917 5.61 4.727 6 8a11.464 11.464 0 0 1 -6 11c-5.789 3.2-11.834-.284-13-1-6.2-3.8-6.909-10.9-7-12a16.812 16.812 0 0 1 7-15 17.024 17.024 0 0 1 10-3h3c1.657 0 2 1.343 2 3z" fill="#7d8d9c"/><path d="m46.165 10.574a5.2 5.2 0 0 0 -.308-4.089c-1.552-2.588-5.166-4.3-9.43-4.471-5.094-.208-9.677 1.816-12.24 5.4-.143.2-.268.389-.4.582h-2.771a19.2 19.2 0 0 0 -2.517.14l-.01.006a17.51 17.51 0 0 0 -15.489 18.941 18.566 18.566 0 0 0 2.32 7.429c-.873.542-1.782 1.074-2.788 1.6a1 1 0 0 0 -.532.888v24a1 1 0 0 0 1 1h39a1 1 0 0 0 1-1c0-1.475.16-7.438.943-9.668a14.361 14.361 0 0 1 2.106-3.905 9.274 9.274 0 0 0 1.938-4.268 11.32 11.32 0 0 0 -.258-4.481c-.262-1.2-.319-1.628.019-2.014.278-.315.6-.364 1.862-.435.664-.038 1.491-.085 2.532-.237 2.942-.426 5.546-.97 7.609-3.331 2.855-3.266 3.413-8.906-1.046-13.365-1.005-1.007-9.941-6.989-12.54-8.722zm-19.165 1.426c0-1.658-.394-2.8-1.175-3.433 2.175-3.029 6.105-4.717 10.522-4.555 3.544.141 6.6 1.516 7.8 3.5a2.713 2.713 0 0 1 .244 1.831 10.659 10.659 0 0 0 -3.16-1.319 11.249 11.249 0 0 0 -7.674 1.076c-1.707.844-5.76 3.287-6.542 7.722a9.41 9.41 0 0 0 .608 5.167 7.782 7.782 0 0 0 -3.365-1.959 8.215 8.215 0 0 0 -4.318.056c.253-.6.949-2.3.949-2.3 2.421-.744 6.111-2.913 6.111-5.786zm-3.051 22.684a5.464 5.464 0 0 0 -1.857-2.575c.065-.05.142-.088.2-.141a3.905 3.905 0 0 1 3.22-.093c1.109.614 1.787 2.514 1.532 4.13a11.025 11.025 0 0 1 -2.65 2.568 9.317 9.317 0 0 0 -.445-3.889zm-12.409.158a5.676 5.676 0 0 0 2.06-2.457c.471 1.026.908 2.416.519 3.144-.643 1.2-2.067 1.472-4.145 1.487a12.837 12.837 0 0 1 -1.337-1.3 5.577 5.577 0 0 0 2.903-.874zm-4.553-1.448a15.284 15.284 0 0 1 -1.1-2.415 6.637 6.637 0 0 0 1.664.216 6.452 6.452 0 0 0 1.711-.231 6.384 6.384 0 0 0 2.845-1.681 4.008 4.008 0 0 1 -1.652 3.875 3.67 3.67 0 0 1 -3.468.236zm7-9.209a8 8 0 0 1 4.384-5.515 53.226 53.226 0 0 1 -2.25 4.86 24.623 24.623 0 0 1 -2.221 3.438 10.179 10.179 0 0 1 .083-2.783zm1.9 12.286a4.645 4.645 0 0 0 .092-3.438 7.438 7.438 0 0 0 .806.193 4.977 4.977 0 0 1 -.285 6.874 15.237 15.237 0 0 1 -3.841-1.326 4.635 4.635 0 0 0 3.223-2.303zm.447-5.415a3.2 3.2 0 0 1 -1.8-1.7 26.694 26.694 0 0 0 3.349-4.881c.187-.351.35-.685.519-1.024a8.279 8.279 0 0 0 1.41 1.342c1.561 1.274 2.635 2.3 2.219 3.969a3.135 3.135 0 0 1 -1.607 2.077 5.317 5.317 0 0 1 -4.095.217zm3.666-8.798a5.074 5.074 0 0 1 3.742-.292c.032.008.062.021.093.03-.079.028-.159.055-.229.085a4.766 4.766 0 0 0 -1.992 1.605c-.186-.158-.368-.307-.539-.447a7.662 7.662 0 0 1 -1.075-.981zm-.807 11.024a7 7 0 0 0 .807-.157 3.984 3.984 0 0 1 2.047 2.191 7.8 7.8 0 0 1 .14 4.4 9.856 9.856 0 0 1 -3.326.608 6.89 6.89 0 0 0 1.139-3.239 6.818 6.818 0 0 0 -.807-3.803zm7.291-3.157a4.81 4.81 0 0 0 -2.628-.564c.012-.037.028-.071.039-.108a3.038 3.038 0 0 1 2.178-1.453 3.3 3.3 0 0 1 2.984 2.29 9.309 9.309 0 0 1 -.4 2.532 5.122 5.122 0 0 0 -2.173-2.697zm-.557-4.125a4.327 4.327 0 0 0 -2.022.689 5.175 5.175 0 0 0 -.854-1.555 2.812 2.812 0 0 1 1.343-1.218 3.285 3.285 0 0 1 2.632.354 9.581 9.581 0 0 1 1.291 2.25 4.415 4.415 0 0 0 -2.39-.52zm-6.749-15.922c.586-.055 4.822-.078 4.822-.078.469 0 1 0 1 2 0 1.666-2.975 3.458-5.082 3.988a3.31 3.31 0 0 1 -2.963-2.288c-.355-1.138.834-2.693 2.223-3.622zm-7.229 2.505a15.145 15.145 0 0 1 3.744-1.794 4.217 4.217 0 0 0 -.648 3.507 5.21 5.21 0 0 0 2.068 2.76l-.18.1c-.938-.051-3.041-.326-4.14-1.768a4.277 4.277 0 0 1 -.844-2.805zm-1.878 1.446a5.983 5.983 0 0 0 1.134 2.577 6.425 6.425 0 0 0 3.55 2.218q-.216.216-.418.443l-.008-.008a4.434 4.434 0 0 1 -4.882.846 5.6 5.6 0 0 1 -2.2-2.639 15.573 15.573 0 0 1 2.824-3.437zm-3.916 5.583a6.4 6.4 0 0 0 2.4 2.283 5.862 5.862 0 0 0 2.63.608 6.414 6.414 0 0 0 1.24-.124c-.027.074-.053.149-.078.224-1.238 1.248-3.435 1.397-4.347 1.397-.829 0-1.881-.883-2.656-1.852a15.731 15.731 0 0 1 .811-2.536zm-.916 8.988a15.563 15.563 0 0 1 -.239-1.683 15.382 15.382 0 0 1 -.017-2.271 4.784 4.784 0 0 0 3.017 1.354 10.384 10.384 0 0 0 3.856-.73c-.015.313-.021.633-.011.963a4.924 4.924 0 0 1 -3.109 2.8 4.789 4.789 0 0 1 -3.497-.433zm40.774 14.24a7.343 7.343 0 0 1 -1.6 3.432 20.812 20.812 0 0 0 -1.3 2.02 13.062 13.062 0 0 1 -15.336-3.914l-1.566 1.244a15.189 15.189 0 0 0 8.568 5.355 14.915 14.915 0 0 0 3.214.35 15.248 15.248 0 0 0 4.023-.548c-.769 2.317-.96 7.133-1.007 9.221h-37.009v-22.4c.866-.468 1.663-.941 2.435-1.422a14.707 14.707 0 0 0 4.042 3.674 16.7 16.7 0 0 0 8.3 2.479 11.638 11.638 0 0 0 5.7-1.457 12.944 12.944 0 0 0 4.439-4.081l.019.005c0-.014 0-.028.007-.042a11.769 11.769 0 0 0 2.045-7.875 11.8 11.8 0 0 0 -.79-3 13.85 13.85 0 0 0 3.617 2.664c-.039.126-.081.259-.124.393a9.552 9.552 0 0 0 -.681 4.233 9.759 9.759 0 0 0 5.616 6.757 5.931 5.931 0 0 0 2.189.405 8.442 8.442 0 0 0 4.853-1.711c.032.16.067.32.1.48a9.348 9.348 0 0 1 .246 3.738zm13.821-14.826-12 2 .33 1.972 10.9-1.816a6.794 6.794 0 0 1 -.816 1.172c-1.619 1.852-3.67 2.274-6.39 2.669-.955.137-1.733.182-2.359.218-1.32.075-2.365.138-3.245 1.113 0 0-.028.026-.032.031-1.915 2.379-4.8 3.513-6.852 2.7a7.85 7.85 0 0 1 -4.384-5.243 8.479 8.479 0 0 1 .616-3.278 11.347 11.347 0 0 0 .385-1.38 1 1 0 0 0 -.585-1.085c-4.391-1.922-7.089-6.09-6.416-9.91.623-3.536 4.025-5.569 5.459-6.278a9.931 9.931 0 0 1 4.449-1.137 8.259 8.259 0 0 1 1.88.215 8.765 8.765 0 0 1 3.589 1.8c.027.022 12.2 8.209 12.931 8.937a8.137 8.137 0 0 1 2.54 7.3z"/><path d="m53 23h4v2h-4z"/><path d="m32 18h2v2h-2z"/><path d="m6 56h2v2h-2z"/><path d="m10 54h2v2h-2z"/></g></svg>