<svg height="512" viewBox="0 0 64 64" width="512" xmlns="http://www.w3.org/2000/svg"><g id="Filled_outline" data-name="Filled outline"><g fill="#995f5b"><path d="m11 32-8 8v21h58v-21l-8-8z"/><path d="m15.73 8.73-2.73-2.73a7.233 7.233 0 0 0 -5-2 3 3 0 0 0 -3 3 8.552 8.552 0 0 0 1 4l3 5a29.735 29.735 0 0 1 6.73-7.27z"/><path d="m56 4a7.233 7.233 0 0 0 -5 2l-2.73 2.73a29.735 29.735 0 0 1 6.73 7.27l3-5a8.552 8.552 0 0 0 1-4 3 3 0 0 0 -3-3z"/></g><path d="m32 3c-14.87 0-22.612 12.355-23 13v9a14.181 14.181 0 0 0 14 14h18a14.181 14.181 0 0 0 14-14v-9c-.388-.645-8.13-13-23-13z" fill="#ceac9a"/><circle cx="22" cy="24" fill="#f4f4e6" r="5"/><circle cx="42" cy="24" fill="#f4f4e6" r="5"/><path d="m21 23h2v2h-2z"/><path d="m41 23h2v2h-2z"/><path d="m32 46s-4-4.791-4-7v-6a4 4 0 0 1 4-4 4 4 0 0 1 4 4v6c0 2.209-4 7-4 7z" fill="#301a12"/><path d="m16 24a6 6 0 0 0 12 0c0-.112-.011-.222-.017-.333l1.392 1.114a1 1 0 0 0 .625.219h4a1 1 0 0 0 .6-.2l1.413-1.06c0 .087-.013.172-.013.26a6 6 0 1 0 8.3-5.542 14.781 14.781 0 0 1 2.767-.458l-.134-2a15.3 15.3 0 0 0 -8.559 3.218v.007a6.054 6.054 0 0 0 -1.069 1.041l-3.638 2.734h-3.316l-4.642-3.714a14.173 14.173 0 0 0 -2.083-2.066 15.3 15.3 0 0 0 -8.559-3.22l-.134 2a13.619 13.619 0 0 1 6.405 2.041 6.007 6.007 0 0 0 -5.338 5.959zm26-4a4 4 0 1 1 -4 4 4 4 0 0 1 4-4zm-16 4a4 4 0 1 1 -4-4 4 4 0 0 1 4 4z"/><path d="m21 23h2v2h-2z"/><path d="m41 23h2v2h-2z"/><path d="m61.707 39.293-7.437-7.437a14.627 14.627 0 0 0 1.73-6.856v-8.723l2.868-4.777a9.593 9.593 0 0 0 1.132-4.5 4 4 0 0 0 -4-4 8.205 8.205 0 0 0 -5.707 2.293l-2.125 2.124a26.837 26.837 0 0 0 -32.336 0l-2.125-2.124a8.205 8.205 0 0 0 -5.707-2.293 4 4 0 0 0 -4 4 9.6 9.6 0 0 0 1.143 4.515l2.857 4.762v8.723a14.627 14.627 0 0 0 1.73 6.856l-7.437 7.437a1 1 0 0 0 -.293.707v21a1 1 0 0 0 1 1h58a1 1 0 0 0 1-1v-21a1 1 0 0 0 -.293-.707zm-10-32.586a6.253 6.253 0 0 1 4.293-1.707 2 2 0 0 1 2 2 7.588 7.588 0 0 1 -.857 3.485l-2.2 3.667a32.555 32.555 0 0 0 -5.19-5.491zm-19.707-2.707c13.448 0 20.858 10.533 22 12.29v8.71a13.174 13.174 0 0 1 -13 13h-4v-5a5 5 0 0 0 -10 0v5h-4a13.174 13.174 0 0 1 -13-13v-8.71c1.142-1.757 8.552-12.29 22-12.29zm3 29v6c0 1.073-1.569 3.529-3 5.4-1.431-1.866-3-4.322-3-5.4v-6a3 3 0 0 1 6 0zm-25.943-18.848-2.189-3.652a7.6 7.6 0 0 1 -.868-3.5 2 2 0 0 1 2-2 6.253 6.253 0 0 1 4.293 1.707l1.954 1.954a32.555 32.555 0 0 0 -5.19 5.491zm50.943 45.848h-56v-19.586l6.814-6.814a15.1 15.1 0 0 0 12.186 6.4h4.154c.686 2.483 3.46 5.9 4.078 6.641a1 1 0 0 0 1.536 0c.618-.74 3.392-4.158 4.078-6.641h4.154a15.1 15.1 0 0 0 12.186-6.4l6.814 6.814z"/><path d="m18 44v-2h-2v2a1 1 0 0 1 -2 0v-2h-2v2a3 3 0 0 0 6 0z"/><path d="m26 47a1 1 0 0 1 -2 0v-2h-2v2a3 3 0 0 0 6 0v-2h-2z"/><path d="m42 45h-2v2a1 1 0 0 1 -2 0v-2h-2v2a3 3 0 0 0 6 0z"/><path d="m50 43a1 1 0 0 1 -2 0v-2h-2v2a3 3 0 0 0 6 0v-2h-2z"/><path d="m31 16h2v2h-2z"/><path d="m27 13h2v2h-2z"/><path d="m35 13h2v2h-2z"/><path d="m33 53a1 1 0 0 1 -2 0v-2h-2v2a3 3 0 0 0 6 0v-2h-2z"/><path d="m20 53a1 1 0 0 1 -2 0v-2h-2v2a3 3 0 0 0 6 0v-2h-2z"/><path d="m46 53a1 1 0 0 1 -2 0v-2h-2v2a3 3 0 0 0 6 0v-2h-2z"/></g></svg>