<?xml version="1.0" encoding="UTF-8"?>
<svg xmlns="http://www.w3.org/2000/svg" viewBox="0 0 64 64" width="512" height="512"><g id="Filled_outline" data-name="Filled outline"><path d="M32,13h0a24.143,24.143,0,0,0-17.071,7.071L9,26a9.688,9.688,0,0,0-3,7v9A12.042,12.042,0,0,0,18,53a20.463,20.463,0,0,0,14,6,20.463,20.463,0,0,0,14-6A12.042,12.042,0,0,0,58,42V33a9.656,9.656,0,0,0-2.828-6.828l-6.1-6.1A24.143,24.143,0,0,0,32,13Z" style="fill:#e8e8e8"/><rect x="38.05" y="25.929" width="9.899" height="14.142" rx="4.95" ry="4.95" transform="translate(-10.74 40.071) rotate(-45)" style="fill:#394d5c"/><rect x="13.929" y="28.05" width="14.142" height="9.899" rx="4.95" ry="4.95" transform="translate(-17.184 24.515) rotate(-45)" style="fill:#394d5c"/><path d="M47,18h0a9.688,9.688,0,0,0,3-7V9a3,3,0,0,1,3-3h0a8.094,8.094,0,0,1,4,2h0a13.659,13.659,0,0,1,4,9h0a12.1,12.1,0,0,1-3,8l-2,2Z" style="fill:#143441"/><path d="M17,18h0a9.688,9.688,0,0,1-3-7V9a3,3,0,0,0-3-3h0A8.094,8.094,0,0,0,7,8H7a13.659,13.659,0,0,0-4,9H3a12.1,12.1,0,0,0,3,8l2,2Z" style="fill:#143441"/><path d="M32,31a11.484,11.484,0,0,0-11,9L18,53a20.463,20.463,0,0,0,14,6,20.463,20.463,0,0,0,14-6L43,40A11.484,11.484,0,0,0,32,31Z" style="fill:#143441"/><path d="M28,41h8a2,2,0,0,1,2,2v0a4,4,0,0,1-4,4H30a4,4,0,0,1-4-4v0a2,2,0,0,1,2-2Z" style="fill:#394d5c"/><path d="M53,5a4,4,0,0,0-4,4v2a8.546,8.546,0,0,1-2.242,5.786,25.147,25.147,0,0,0-29.516,0A8.546,8.546,0,0,1,15,11V9a4,4,0,0,0-4-4C9.549,5,7.207,6.38,6.293,7.293A14.6,14.6,0,0,0,2,17a13.1,13.1,0,0,0,3.293,8.707l1.468,1.468A10.482,10.482,0,0,0,5,33l0,9.082A13.094,13.094,0,0,0,17.585,53.993,21.324,21.324,0,0,0,32,60a21.324,21.324,0,0,0,14.415-6.007A13.108,13.108,0,0,0,59,42V33a10.581,10.581,0,0,0-1.744-5.842l1.451-1.451A13.1,13.1,0,0,0,62,17a14.6,14.6,0,0,0-4.293-9.707C56.793,6.38,54.451,5,53,5ZM6.707,24.293A11.065,11.065,0,0,1,4,17,12.694,12.694,0,0,1,7.707,8.707,7.419,7.419,0,0,1,11,7a2,2,0,0,1,2,2v2a10.616,10.616,0,0,0,2.674,7.03c-.5.426-.984.866-1.452,1.334,0,0-6.114,6.134-6.209,6.235ZM32,58a19.544,19.544,0,0,1-12.894-5.346l2.869-12.432A10.471,10.471,0,0,1,32,32a10.47,10.47,0,0,1,10.025,8.225l2.869,12.429A19.544,19.544,0,0,1,32,58ZM20.461,38.319a3.944,3.944,0,0,1-3.754-6.612l3-3a3.922,3.922,0,0,1,6.715,2.708A12.68,12.68,0,0,0,20.461,38.319Zm17.117-6.9a3.922,3.922,0,0,1,6.715-2.708l3,3a3.941,3.941,0,0,1-3.755,6.612A12.682,12.682,0,0,0,37.578,31.415Zm9.209,20.547L44.122,40.416c.126.008.251.034.378.034a5.951,5.951,0,0,0,4.207-10.157l-3-3a5.938,5.938,0,0,0-10.077,3.3,11.48,11.48,0,0,0-7.26,0,5.938,5.938,0,0,0-10.077-3.3l-3,3A5.95,5.95,0,0,0,19.5,40.45c.127,0,.251-.026.378-.034L17.213,51.962A11.06,11.06,0,0,1,7,42V33a8.67,8.67,0,0,1,2.707-6.293l5.929-5.929a23.143,23.143,0,0,1,32.728,0l6.1,6.1A8.6,8.6,0,0,1,57,33l0,8.918A11.075,11.075,0,0,1,46.787,51.962ZM57.293,24.293l-1.3,1.3-6.216-6.228c-.468-.468-.955-.908-1.452-1.334A10.616,10.616,0,0,0,51,11V9a2,2,0,0,1,2-2,7.419,7.419,0,0,1,3.293,1.707A12.694,12.694,0,0,1,60,17,11.065,11.065,0,0,1,57.293,24.293Z"/><path d="M36,50H33V48h1a5.006,5.006,0,0,0,5-5,3,3,0,0,0-3-3H28a3,3,0,0,0-3,3,5.006,5.006,0,0,0,5,5h1v2H28a6.255,6.255,0,0,1-4.293-1.707l-1.414,1.414A8.209,8.209,0,0,0,28,52h8a8.209,8.209,0,0,0,5.707-2.293l-1.414-1.414A6.255,6.255,0,0,1,36,50Zm-6-4a3,3,0,0,1-3-3,1,1,0,0,1,1-1h8a1,1,0,0,1,1,1,3,3,0,0,1-3,3Z"/><rect x="20" y="31" width="2" height="2"/><rect x="42" y="31" width="2" height="2"/></g></svg>
