<svg height="512" viewBox="0 0 64 64" width="512" xmlns="http://www.w3.org/2000/svg"><g id="Filled_outline" data-name="Filled outline"><path d="m57 32c-.032-.285 0-5-1-8-10-30-48-22-50-11-.358 1.968-.231 4.572 1 6a5.9 5.9 0 0 1 5 0c2.328 1.31 3.408 4.751 2 8a4.242 4.242 0 0 1 6 0 9.69 9.69 0 0 1 3 7v1s-5.062 7.928-6 11c-.868 2.843-.2 7.436 7 15h37v-18c-3.1-6.193-3.227-4.119-4-11z" fill="#e33e5c"/><path d="m56 32c-1.829.374-7.639 1.812-11 7-3.042 4.7-2.453 9.955-2 14a31.147 31.147 0 0 0 2 8h16v-24a5 5 0 0 0 -5-5z" fill="#fcf05a"/><path d="m12 19a5.9 5.9 0 0 0 -5 0 7.221 7.221 0 0 0 -3 3c-3 6 1 13 10 20l-4-10c-.778-2.334 1.54-5 4-5 1.408-3.249.328-6.69-2-8z" fill="#f9bb4b"/><path d="m23 35v-1a9.69 9.69 0 0 0 -3-7 4.242 4.242 0 0 0 -6 0 7.692 7.692 0 0 0 1 4c2.355 4.039 7.721 4.006 8 4z" fill="#394d5c"/><path d="m12 19c2.328 1.31 3.408 4.751 2 8a4.242 4.242 0 0 1 6 0l5-5a7.071 7.071 0 0 0 -10-10l-8 7a5.9 5.9 0 0 1 5 0z" fill="#f4f4e6"/><path d="m20 16h2v2h-2z"/><path d="m57.981 31.343a29.712 29.712 0 0 0 -1.033-7.659c-7.194-21.584-26.92-21.902-32.802-21.484-9.933.7-18.157 5.271-19.129 10.62a9.7 9.7 0 0 0 .611 5.89 7.868 7.868 0 0 0 -2.523 2.843c-2.174 4.347-2.156 11.563 10.281 21.236a1 1 0 0 0 1.543-1.16l-3.98-9.945a2.51 2.51 0 0 1 .467-2.24 3.583 3.583 0 0 1 1.643-1.244 8.442 8.442 0 0 0 1.077 3.3c1.805 3.094 5.112 4.058 7.145 4.358-1.511 2.448-4.5 7.454-5.237 9.845-1.309 4.272 1.057 9.5 7.232 15.982a1 1 0 0 0 .724.315h37a1 1 0 0 0 1-1v-24a6 6 0 0 0 -4.019-5.657zm-44.689-5.286a5.468 5.468 0 0 0 -3.5 2.217 4.491 4.491 0 0 0 -.723 4.1l2.531 6.326c-5.174-4.669-9.5-10.654-6.705-16.253a6.314 6.314 0 0 1 2.56-2.554 4.845 4.845 0 0 1 4.055-.022c1.627.916 2.69 3.478 1.782 6.186zm-.8-7.928a5.464 5.464 0 0 0 -2.209-.672l5.426-4.75a6.071 6.071 0 0 1 8.586 8.586l-4.364 4.364a5.235 5.235 0 0 0 -4.368-.673 6.817 6.817 0 0 0 -3.073-6.855zm3.372 12.371a6.575 6.575 0 0 1 -.859-3.053 3.25 3.25 0 0 1 4.288.264 8.675 8.675 0 0 1 2.707 6.229c-1.569-.173-4.622-.847-6.136-3.44zm8.567 29.5c-5.341-5.688-7.519-10.3-6.475-13.707.89-2.905 5.872-10.764 5.872-10.764a.974.974 0 0 0 .172-.529v-1a10.6 10.6 0 0 0 -2.618-6.968l4.325-4.325a8.07 8.07 0 0 0 -11.365-11.46l-7.1 6.209a8.318 8.318 0 0 1 -.262-4.277c.8-4.407 8.4-8.354 17.3-8.987 5.514-.386 24.024-.1 30.765 20.124a25.512 25.512 0 0 1 .92 6.684.905.905 0 0 0 -.165.017c-2.937.6-8.354 2.364-11.639 7.435-3.237 5-2.611 10.579-2.155 14.655a32.035 32.035 0 0 0 1.574 6.893zm35.569-.313a12.652 12.652 0 0 1 -4.019-6.88 12.044 12.044 0 0 1 0-4.619l-1.964-.376a14 14 0 0 0 0 5.382 14.258 14.258 0 0 0 3.483 6.806h-3.183a12.615 12.615 0 0 1 -5.324-11.882l-1.986-.236a14.7 14.7 0 0 0 1.074 7.512 14.482 14.482 0 0 0 3.135 4.606h-5.529a30.144 30.144 0 0 1 -1.693-7.111c-.447-3.988-1-8.95 1.845-13.345s7.606-5.985 10.261-6.544a4.005 4.005 0 0 1 3.9 4z"/><path d="m26 56h2v2h-2z"/><path d="m23 52h2v2h-2z"/></g></svg>