<svg height="512" viewBox="0 0 64 64" width="512" xmlns="http://www.w3.org/2000/svg"><g id="Filled_outline" data-name="Filled outline"><path d="m46 14.813 5.117-5.113a5.789 5.789 0 0 1 8.187 0 5.789 5.789 0 0 1 0 8.187l-5.117 5.113z" fill="#d3d2c1"/><path d="m18 14.813-5.117-5.113a5.789 5.789 0 0 0 -8.183 0 5.789 5.789 0 0 0 0 8.187l5.113 5.113z" fill="#d3d2c1"/><path d="m32 10a24.143 24.143 0 0 0 -17.071 7.071l-5.929 5.929a10.242 10.242 0 0 0 -3 7.243v8.757a12.042 12.042 0 0 0 12 11 20.463 20.463 0 0 0 14 6 20.463 20.463 0 0 0 14-6 12.042 12.042 0 0 0 12-11v-9a9.656 9.656 0 0 0 -2.828-6.828l-6.1-6.1a24.143 24.143 0 0 0 -17.072-7.072z" fill="#e8e8e8"/><path d="m29 29h6a4 4 0 0 1 4 4v1a7 7 0 0 1 -7 7 7 7 0 0 1 -7-7v-1a4 4 0 0 1 4-4z" fill="#394d5c"/><path d="m35 28h-6a5.006 5.006 0 0 0 -5 5v1a8.008 8.008 0 0 0 7 7.931v2.655l-3.707 3.707 1.414 1.414 3.293-3.293 3.293 3.293 1.414-1.414-3.707-3.707v-2.655a8.008 8.008 0 0 0 7-7.931v-1a5.006 5.006 0 0 0 -5-5zm3 6a5.983 5.983 0 0 1 -2 4.46v-1.46h-2v2.65a5.889 5.889 0 0 1 -4 0v-2.65h-2v1.46a5.983 5.983 0 0 1 -2-4.46v-1a3 3 0 0 1 3-3h6a3 3 0 0 1 3 3z"/><path d="m55.21 7a6.724 6.724 0 0 0 -4.8 2l-4.328 4.32a25.163 25.163 0 0 0 -28.172 0l-4.32-4.332a6.79 6.79 0 0 0 -9.6 9.6l4.019 4.018a11.157 11.157 0 0 0 -3.009 7.636v8.84a13.1 13.1 0 0 0 12.585 11.911 21.324 21.324 0 0 0 14.415 6.007 21.324 21.324 0 0 0 14.415-6.007 13.109 13.109 0 0 0 12.585-11.993v-9a10.583 10.583 0 0 0 -3-7.4l4-4.01a6.793 6.793 0 0 0 -4.79-11.59zm-49.81 10.176a4.79 4.79 0 0 1 6.776-6.776l4.113 4.114c-.716.575-2.789 2.57-2.789 2.57l-2.793-2.793-1.414 1.416 2.793 2.793-2.68 2.68zm51.6 12.824v8.918a11.076 11.076 0 0 1 -8.751 9.841 29.49 29.49 0 0 0 2.651-4.314l-1.792-.89a27.574 27.574 0 0 1 -3.834 5.758 19.578 19.578 0 0 1 -13.274 5.687 19.578 19.578 0 0 1 -13.27-5.687 27.652 27.652 0 0 1 -3.83-5.758l-1.792.89a29.572 29.572 0 0 0 2.644 4.315 11.051 11.051 0 0 1 -8.752-9.76v-8.758a9.18 9.18 0 0 1 2.707-6.535l5.929-5.929a23.143 23.143 0 0 1 32.728 0l6.1 6.1a8.6 8.6 0 0 1 2.536 6.122zm1.593-12.827-4 4-2.679-2.673 2.793-2.793-1.414-1.414-2.793 2.793s-2.073-1.995-2.789-2.57l4.118-4.111a4.784 4.784 0 1 1 6.764 6.768z"/><path d="m22 23h2v2h-2z"/><path d="m40 23h2v2h-2z"/><path d="m52 31h2v2h-2z"/><path d="m47 35h2v2h-2z"/></g></svg>