<?xml version="1.0" encoding="UTF-8"?>
<svg xmlns="http://www.w3.org/2000/svg" viewBox="0 0 64 64" width="512" height="512"><g id="Filled_outline" data-name="Filled outline"><path d="M54,3a8.094,8.094,0,0,0-4,2L39,16a10.231,10.231,0,0,0-3,7,5.779,5.779,0,0,1,6,6v8L53,22A26.52,26.52,0,0,0,58,7,4,4,0,0,0,54,3Z" style="fill:#f9bb4b"/><path d="M10,3a8.094,8.094,0,0,1,4,2L25,16a10.231,10.231,0,0,1,3,7,5.779,5.779,0,0,0-6,6v8L11,22A26.52,26.52,0,0,1,6,7,4,4,0,0,1,10,3Z" style="fill:#f9bb4b"/><path d="M37.179,23.1a6.181,6.181,0,0,1,.939.242c.044.015.089.029.132.045a5.85,5.85,0,0,1,.849.389l.1.057a5.39,5.39,0,0,1,.777.546L40,24.4A5.754,5.754,0,0,1,41.922,28H42a9.69,9.69,0,0,0,3-7V10l-6,6a10.231,10.231,0,0,0-3,7,6.954,6.954,0,0,1,1.064.087C37.1,23.093,37.141,23.1,37.179,23.1Z" style="fill:#d3843d"/><path d="M42,37V29a5.779,5.779,0,0,0-6-6H28a5.779,5.779,0,0,0-6,6v8s-9,3-9,12A12,12,0,0,0,25,61H39A12,12,0,0,0,51,49C51,40,42,37,42,37Z" style="fill:#ffd782"/><path d="M26.821,23.1a6.181,6.181,0,0,0-.939.242c-.044.015-.089.029-.132.045a5.85,5.85,0,0,0-.849.389l-.1.057a5.39,5.39,0,0,0-.777.546L24,24.4A5.754,5.754,0,0,0,22.078,28H22a9.69,9.69,0,0,1-3-7V10l6,6a10.231,10.231,0,0,1,3,7,6.954,6.954,0,0,0-1.064.087C26.9,23.093,26.859,23.1,26.821,23.1Z" style="fill:#d3843d"/><path d="M32,52h0s-4-1.791-4-4h0a4,4,0,0,1,4-4h0a4,4,0,0,1,4,4h0C36,50.209,32,52,32,52Z" style="fill:#66342e"/><path d="M33,54.58V52.623c1.269-.667,4-2.363,4-4.623a5,5,0,0,0-10,0c0,2.26,2.731,3.956,4,4.623v1.959A3.8,3.8,0,0,1,28,56H26v2h2a5.5,5.5,0,0,0,4-1.621A5.5,5.5,0,0,0,36,58h2V56H36A3.811,3.811,0,0,1,33,54.58ZM29,48a3,3,0,0,1,6,0c0,.958-1.664,2.2-3,2.89C30.664,50.2,29,48.958,29,48Z"/><rect x="25" y="36" width="2" height="2"/><rect x="37" y="36" width="2" height="2"/><path d="M54.324,48.054a15.176,15.176,0,0,0-2.415-.6A12.3,12.3,0,0,0,50.473,42.9a12.208,12.208,0,0,1,2.39.092A13.515,13.515,0,0,1,60.3,46.716l1.4-1.432a15.525,15.525,0,0,0-8.561-4.274,14.088,14.088,0,0,0-3.912.013,16.665,16.665,0,0,0-5.676-4.444l10.26-13.991A27.527,27.527,0,0,0,59,7a5.006,5.006,0,0,0-5-5c-1.451,0-3.794,1.38-4.707,2.293l-11,11A11.33,11.33,0,0,0,35.055,22h-6.11a11.33,11.33,0,0,0-3.238-6.707l-11-11C13.8,3.38,11.453,2,10,2A5.006,5.006,0,0,0,5,7a27.546,27.546,0,0,0,5.193,15.592L20.451,36.579a16.665,16.665,0,0,0-5.676,4.444,13.9,13.9,0,0,0-3.912-.013,15.143,15.143,0,0,0-8.56,4.4L3.7,46.842a13.2,13.2,0,0,1,7.44-3.852,12.013,12.013,0,0,1,2.387-.087,12.3,12.3,0,0,0-1.433,4.547,14.99,14.99,0,0,0-2.415.6A16.311,16.311,0,0,0,2.219,53.5l1.562,1.248a14.361,14.361,0,0,1,6.543-4.8,12.908,12.908,0,0,1,1.7-.445A13.006,13.006,0,0,0,25,62H39A13.007,13.007,0,0,0,51.975,49.5a13.328,13.328,0,0,1,1.7.447,14.43,14.43,0,0,1,6.543,4.678l1.562-1.248A16.416,16.416,0,0,0,54.324,48.054ZM46,10.414l4.707-4.707A7.419,7.419,0,0,1,54,4a3,3,0,0,1,3,3,25.452,25.452,0,0,1-4.807,14.408L43,33.945V29c0-.2-.013-.391-.027-.584A10.682,10.682,0,0,0,46,21Zm-6.293,6.293L44,12.414V21a8.426,8.426,0,0,1-1.613,5,6.637,6.637,0,0,0-5.325-3.922A9.445,9.445,0,0,1,39.707,16.707ZM20,12.414l4.293,4.293a9.445,9.445,0,0,1,2.645,5.371A6.637,6.637,0,0,0,21.613,26,8.426,8.426,0,0,1,20,21Zm-8.191,9A25.469,25.469,0,0,1,7,7a3,3,0,0,1,3-3,7.414,7.414,0,0,1,3.293,1.707L18,10.414V21a10.682,10.682,0,0,0,3.027,7.416C21.013,28.609,21,28.8,21,29v4.945ZM39,60H25A11.006,11.006,0,0,1,14.013,49.262a16.9,16.9,0,0,1,9.443,2.7l1.088-1.678a19.052,19.052,0,0,0-10.4-3.027,10.455,10.455,0,0,1,1.491-4.036A16.1,16.1,0,0,1,23.262,47.8l1.476-1.35a18.5,18.5,0,0,0-7.794-4.936,14.46,14.46,0,0,1,5.374-3.566l.682-.23V29a4.784,4.784,0,0,1,5-5h8a4.784,4.784,0,0,1,5,5v8.721l.684.227a14.765,14.765,0,0,1,5.332,3.565,18.487,18.487,0,0,0-7.754,4.812l1.476,1.35a16.029,16.029,0,0,1,7.6-4.461,10.434,10.434,0,0,1,1.518,4.033,19.082,19.082,0,0,0-10.4,2.914l1.088,1.678a16.866,16.866,0,0,1,9.443-2.593A11.006,11.006,0,0,1,39,60Z"/></g></svg>
