<svg height="512" viewBox="0 0 64 64" width="512" xmlns="http://www.w3.org/2000/svg"><g id="Filled_outline" data-name="Filled outline"><path d="m24 16-11.257-5a7.641 7.641 0 0 0 -7.881 1 5.662 5.662 0 0 0 -1.125 7c2.297 4.081 5.263 8.438 5.263 13z" fill="#cfdfe8"/><path d="m40 16 11.257-5a7.641 7.641 0 0 1 7.881 1 5.662 5.662 0 0 1 1.125 7c-2.297 4.081-5.263 8.438-5.263 13z" fill="#cfdfe8"/><path d="m32 54c-6.511 0-14.359-2.821-19-8-2.445-2.728-4-5.57-4-9v-5l15-16h16l15 16v5c0 3.43-1.555 6.272-4 9-4.641 5.179-12.489 8-19 8z" fill="#7d8d9c"/><path d="m33 31h-2a6.39 6.39 0 0 0 -5 2l-13 13c4.641 5.179 12.489 8 19 8s14.359-2.821 19-8l-13-13a6.39 6.39 0 0 0 -5-2z" fill="#cfdfe8"/><path d="m32 35a5 5 0 0 1 5 5 3 3 0 0 1 -3 3h-4a3 3 0 0 1 -3-3 5 5 0 0 1 5-5z" fill="#143441"/><path d="m25 28a4.026 4.026 0 0 0 -6 0l-6 6a8.564 8.564 0 0 0 -1.668 9.908 21.853 21.853 0 0 0 1.668 2.092l12-12a4.045 4.045 0 0 0 0-6z" fill="#394d5c"/><path d="m51 34-6-6a4.026 4.026 0 0 0 -6 0 4.045 4.045 0 0 0 0 6l12 12a21.853 21.853 0 0 0 1.668-2.092 8.564 8.564 0 0 0 -1.668-9.908z" fill="#394d5c"/><path d="m50.852 10.086-11.065 4.914h-15.574l-11.065-4.914a8.583 8.583 0 0 0 -8.948 1.167 6.687 6.687 0 0 0 -1.335 8.237c.327.583.669 1.171 1.014 1.765 2.026 3.49 4.121 7.099 4.121 10.745v5c0 3.356 1.353 6.428 4.255 9.667 4.467 4.984 12.401 8.333 19.745 8.333s15.278-3.349 19.745-8.333c2.902-3.239 4.255-6.311 4.255-9.667v-5c0-3.646 2.095-7.255 4.121-10.745.345-.594.687-1.182 1.014-1.765a6.687 6.687 0 0 0 -1.335-8.237 8.583 8.583 0 0 0 -8.948-1.167zm-45.244 10.165c-.339-.586-.676-1.166-1-1.741a4.679 4.679 0 0 1 .919-5.763 6.627 6.627 0 0 1 6.81-.833l9.972 4.429-8.543 9.113a3.211 3.211 0 0 1 -.777-1.606c-.085-.563.383-1.043 1.155-1.782a4.89 4.89 0 0 0 1.856-2.968c.192-1.922-1.264-3.865-4.449-5.938l-1.092 1.676c2.4 1.559 3.657 3 3.551 4.062-.059.588-.636 1.14-1.245 1.724-.889.85-1.995 1.908-1.748 3.526a5.2 5.2 0 0 0 1.38 2.77l-2.626 2.8c-.613-3.315-2.402-6.436-4.163-9.469zm7.454 24.273c-.31-.378-.6-.752-.857-1.123a7.517 7.517 0 0 1 1.5-8.694l6-6a3.047 3.047 0 0 1 4.586 0 3.039 3.039 0 0 1 0 4.586zm18.938 8.476c-5.416 0-12.811-2.172-17.6-6.987l12.307-12.306a5.433 5.433 0 0 1 4.293-1.707h2a5.433 5.433 0 0 1 4.293 1.707l12.307 12.306c-4.789 4.815-12.184 6.987-17.6 6.987zm19.8-9.6c-.26.37-.547.744-.857 1.122l-11.236-11.229a3.243 3.243 0 0 1 4.586-4.586l6 6a7.518 7.518 0 0 1 1.507 8.693zm2.2-6.48a9.686 9.686 0 0 0 -2.293-3.627l-6-6a5.025 5.025 0 0 0 -7.414 0 5.257 5.257 0 0 0 -1.615 3.5 7.883 7.883 0 0 0 -3.678-.793h-2a7.883 7.883 0 0 0 -3.678.792 5.257 5.257 0 0 0 -1.615-3.5 5.025 5.025 0 0 0 -7.414 0l-6 6a9.686 9.686 0 0 0 -2.293 3.628v-4.52l14.434-15.4h15.132l14.434 15.4zm5.393-18.41c-.325.575-.662 1.155-1 1.741-1.761 3.033-3.55 6.154-4.158 9.471l-2.626-2.8a5.2 5.2 0 0 0 1.38-2.77c.247-1.618-.859-2.676-1.748-3.526-.61-.586-1.187-1.138-1.241-1.726-.106-1.06 1.154-2.5 3.551-4.062l-1.092-1.676c-3.185 2.073-4.642 4.016-4.449 5.938a4.89 4.89 0 0 0 1.852 2.968c.772.739 1.24 1.219 1.155 1.782a3.211 3.211 0 0 1 -.777 1.606l-8.543-9.113 9.972-4.429a6.625 6.625 0 0 1 6.81.833 4.679 4.679 0 0 1 .914 5.763z"/><path d="m34 44a4 4 0 0 0 4-4 6 6 0 0 0 -12 0 4 4 0 0 0 4 4h1v2h-5v2h12v-2h-5v-2zm-4-2a2 2 0 0 1 -2-2 4 4 0 0 1 8 0 2 2 0 0 1 -2 2z"/><path d="m21 30h2v2h-2z"/><path d="m41 30h2v2h-2z"/></g></svg>