<svg height="512" viewBox="0 0 64 64" width="512" xmlns="http://www.w3.org/2000/svg"><g id="Filled_outline" data-name="Filled outline"><path d="m39 3a15.005 15.005 0 0 1 -4 4c-1.756 1.186-3.236 2.259-5 2-1.78-.262-2.408-1.585-6-4-2.286-1.537-3.429-2.3-4-2-2.016 1.078-.484 12.211 5 14a5.169 5.169 0 0 0 3 0c1.212 8.3-.512 14.722-4 16a4.737 4.737 0 0 1 -3 0 9.688 9.688 0 0 0 -3 7v3c2.2 0 5 1.8 5 4v2a4.014 4.014 0 0 1 -4 4 13.987 13.987 0 0 0 2 3c2.331 2.667 6.731 5.7 11 5 3.046-.5 5.7-4 11-11 4.475-5.91 4.884-8.187 5-9 .265-1.855.086-3.615 1-4 1.224-.515 2.6 2.4 6 3a40.428 40.428 0 0 0 6 0v-37z" fill="#7d8d9c"/><path d="m23 49v-1a5.015 5.015 0 0 0 -5-5h-3c-3.111 0-5.8-1.8-8-4l-2-2c-3 3-3 9 3 12 3.241 1.62 7.382 4 11 4a4.008 4.008 0 0 0 4-4z" fill="#dddcc5"/><path d="m61 2h-22a1 1 0 0 0 -.827.438 13.941 13.941 0 0 1 -3.733 3.733l-.242.164c-1.539 1.043-2.749 1.865-4.052 1.676-.792-.116-1.281-.519-2.352-1.4a38.889 38.889 0 0 0 -3.239-2.441c-2.777-1.867-3.924-2.637-5.027-2.05-1.46.78-1.456 3.427-1.323 4.935.384 4.354 2.576 9.623 6.484 10.9a5.765 5.765 0 0 0 2.458.228c.946 7.933-.987 12.967-3.491 13.883a3.846 3.846 0 0 1 -2.383-.023.993.993 0 0 0 -.98.255 10.742 10.742 0 0 0 -3.293 7.702v2h-2c-2.413 0-4.8-1.213-7.293-3.707l-2-2a1 1 0 0 0 -1.414 0 7.887 7.887 0 0 0 -2.16 6.838 9.341 9.341 0 0 0 5.42 6.769c.4.2.815.412 1.241.629 2.853 1.46 6.359 3.233 9.609 3.436a14.922 14.922 0 0 0 1.844 2.7c2.3 2.633 6.288 5.445 10.469 5.445a9.061 9.061 0 0 0 1.445-.116c3.439-.567 6.18-4.184 11.639-11.394 4.734-6.252 5.079-8.668 5.193-9.462.073-.516.115-1.025.154-1.5a9.263 9.263 0 0 1 .218-1.672 7.007 7.007 0 0 1 .953.7 9.573 9.573 0 0 0 4.512 2.319 39.166 39.166 0 0 0 6.235.015 1 1 0 0 0 .935-1v-37a1 1 0 0 0 -1-1zm-42 50c-2.931 0-6.314-1.73-9.3-3.256q-.647-.331-1.257-.639a7.4 7.4 0 0 1 -4.34-5.294 5.946 5.946 0 0 1 .956-4.332l1.23 1.228c2.853 2.849 5.782 4.293 8.711 4.293h3a4 4 0 0 1 4 4v1a3 3 0 0 1 -3 3zm41-12.946a30.9 30.9 0 0 1 -4.827-.039 7.773 7.773 0 0 1 -3.6-1.9 4.659 4.659 0 0 0 -1.989-1.143 18.024 18.024 0 0 1 -1.613-4.2 18.443 18.443 0 0 1 0-8.536l-1.948-.458a20.449 20.449 0 0 0 0 9.464 19.931 19.931 0 0 0 1.741 4.558 5.939 5.939 0 0 0 -.615 2.679c-.034.438-.071.905-.139 1.378-.2 1.373-1.2 3.388-2.977 6a7.764 7.764 0 0 0 -1.74-.811c-4.1-1.26-7.858 1.343-8.911 2.17l1.236 1.572c.611-.48 3.834-2.825 7.089-1.83a5.751 5.751 0 0 1 1.17.529c-.221.3-.436.6-.674.911-5.135 6.782-7.713 10.185-10.364 10.617-.029 0-.058.005-.086.009l2.1-3.507-1.714-1.03-2.7 4.5a14.081 14.081 0 0 1 -7.691-4.641 12.918 12.918 0 0 1 -1.183-1.619 4.99 4.99 0 0 0 3.435-4.727v-1a6.006 6.006 0 0 0 -5-5.91v-2.09a8.568 8.568 0 0 1 2.326-5.893 5.513 5.513 0 0 0 3.018-.168c3.758-1.376 5.631-7.375 4.871-15.2a5.872 5.872 0 0 0 1.932.34 5.4 5.4 0 0 0 1.046-.1c2.931-.577 5.173-3.436 4.8-6.12a4.737 4.737 0 0 0 -1.254-2.538l-1.472 1.354a2.737 2.737 0 0 1 .746 1.462c.227 1.626-1.329 3.511-3.2 3.88a4.279 4.279 0 0 1 -3.219-.828l-.037-.026a1 1 0 0 0 -.808-.132 4.288 4.288 0 0 1 -2.432.017c-2.5-.818-4.1-4.153-4.762-7-.652-2.81-.373-4.627-.135-5.082a21.807 21.807 0 0 1 3.022 1.864 36.422 36.422 0 0 1 3.08 2.324 6.477 6.477 0 0 0 3.332 1.835c2.066.3 3.717-.814 5.465-2 0 0 .608-.435.792-.571a9.13 9.13 0 0 1 1.089 1.182 11.121 11.121 0 0 1 1.81 8.252l1.978.292a13.1 13.1 0 0 0 -2.188-9.744 11.19 11.19 0 0 0 -1.136-1.272 16.131 16.131 0 0 0 1.855-2.128h20.481z"/><path d="m29 38h2v2h-2z"/><path d="m32.8 43.021a4.153 4.153 0 0 1 -3.2-.821l-1.2 1.6a6.459 6.459 0 0 0 3.724 1.293 5.279 5.279 0 0 0 1.083-.112 6.375 6.375 0 0 0 4.793-5.905l-2-.152a4.375 4.375 0 0 1 -3.2 4.097z"/><path d="m25 54h2v2h-2z"/><path d="m54 6h2v2h-2z"/><path d="m50 9h2v2h-2z"/></g></svg>