<svg height="512" viewBox="0 0 64 64" width="512" xmlns="http://www.w3.org/2000/svg"><g id="Filled_outline" data-name="Filled outline"><path d="m6 30 37-27 2 2a20.463 20.463 0 0 1 6 14l-4 4v8a3 3 0 0 0 3 3h8v6a20.971 20.971 0 0 1 -21 21h-31z" fill="#e6f1fd"/><path d="m26.929 51.071c3.889-3.889 7.071-11.571 7.071-17.071v-8a13.705 13.705 0 0 1 4-10l8.887-8.887a27.865 27.865 0 0 0 -1.887-2.113l-2-2-37 27v31h19v-5a7.237 7.237 0 0 1 1.929-4.929z" fill="#2d75bb"/><path d="m51 19v8l-4-4z" fill="#f4f4e6"/><path d="m47 23-2 2a27.406 27.406 0 0 0 -8 20 23.908 23.908 0 0 0 17-7l4-4h-8a3 3 0 0 1 -3-3z" fill="#e33e5c"/><g fill="#f4f4e6"><path d="m42 38-2.982-3.976c-.08.2-.153.4-.228.607l-.59 1.778a28.54 28.54 0 0 0 -.779 3.424z"/><path d="m47 30v-7l-2 2a28.05 28.05 0 0 0 -1.887 2.085z"/><path d="m44 34-.782-7.037a26.339 26.339 0 0 0 -4.189 7.037z"/><path d="m49.183 41.718a23.859 23.859 0 0 0 4.817-3.718l.33-.33-5.33-1.67z"/><path d="m44.18 43.92a23.779 23.779 0 0 0 5.181-2.3l-4.361-2.62z"/><path d="m54 37.929v-7.929l3.964 3.964z"/></g><path d="m30 20h2v2h-2z"/><path d="m54.707 29.293a1 1 0 0 0 -1.707.707v3h-3a2 2 0 0 1 -2-2v-5.586l2.293 2.293a1 1 0 0 0 .707.293.987.987 0 0 0 .383-.076 1 1 0 0 0 .617-.924v-8a21.351 21.351 0 0 0 -6.293-14.707l-2-2a1 1 0 0 0 -1.3-.1l-37 27a1 1 0 0 0 -.407.807v31a1 1 0 0 0 1 1h31a22.025 22.025 0 0 0 22-22v-6a3.076 3.076 0 0 0 -.333-.747zm.293 3.121 1.547 1.547-1.547 1.55zm-5 2.586h3v1.206l-3.7-1.16a1 1 0 0 0 -1.3.986l.118 3.673-2.6-1.562a1 1 0 0 0 -1.5.693l-.718 4.285a23.176 23.176 0 0 1 -5.284.858 30.557 30.557 0 0 1 .318-3.435l4.038-1.615a1 1 0 0 0 .428-1.529l-1.8-2.4h3a1 1 0 0 0 .994-1.11l-.5-4.521 1.506 1.131v.5a4 4 0 0 0 4 4zm2.392 3.11a22.861 22.861 0 0 1 -2.266 1.81l-.082-2.545zm-5.06 3.456c-.5.248-.993.5-1.511.708-.123.051-.251.087-.375.136l.3-1.8zm-8.57-3.348c.165-.716.348-1.423.568-2.112l1.087 1.451zm1.81-5.218a25.105 25.105 0 0 1 1.93-3.431l.381 3.431zm4.012-6.062c.367-.414.725-.833 1.123-1.231l.293-.293v2.586zm5.416-2.352-1.586-1.586 1.586-1.586zm-26 35.414h-17v-9.247a9.19 9.19 0 0 0 1.237 1.893 9.96 9.96 0 0 0 7.509 3.359c.124 0 .224 0 .3-.006l-.084-2a7.966 7.966 0 0 1 -6.195-2.648 7.729 7.729 0 0 1 -1.767-5.301l-1-.05v-15.492l35.9-26.2s2.235 2.279 2.623 2.752l-8.228 8.229a14.785 14.785 0 0 0 -4.295 10.711v8c0 5.2-3.1 12.689-6.778 16.364a8.206 8.206 0 0 0 -2.222 5.636zm33-20a20.023 20.023 0 0 1 -20 20h-11v-4a6.229 6.229 0 0 1 1.636-4.222c4.064-4.061 7.364-12.036 7.364-17.778v-8a12.668 12.668 0 0 1 3.51-9.076l1.783 1.783 1.414-1.414-1.793-1.793 6.8-6.8a19.288 19.288 0 0 1 3.286 9.891l-3.7 3.7-2 2a28.59 28.59 0 0 0 -8.3 20.709 1 1 0 0 0 1 1 25.155 25.155 0 0 0 9.58-1.875 24.671 24.671 0 0 0 8.127-5.418l2.293-2.293z"/><path d="m13.763 48.354a7.65 7.65 0 0 1 -1.763-5.298l-2-.112a9.681 9.681 0 0 0 2.236 6.7 9.8 9.8 0 0 0 6.702 3.356l.124-2a7.748 7.748 0 0 1 -5.299-2.646z"/><path d="m16.778 45.372a4.749 4.749 0 0 1 -.817-4.1l-1.922-.548a6.827 6.827 0 0 0 1.183 5.9 6.665 6.665 0 0 0 5.241 2.4 5.435 5.435 0 0 0 .659-.035l-.244-1.984a4.812 4.812 0 0 1 -4.1-1.633z"/><path d="m40 56h2v2h-2z"/><path d="m37 54h2v2h-2z"/></g></svg>