<?xml version="1.0" encoding="UTF-8"?>
<svg xmlns="http://www.w3.org/2000/svg" viewBox="0 0 64 64" width="512" height="512"><g id="Filled_outline" data-name="Filled outline"><path d="M51,25a10.123,10.123,0,0,1-7-3c-1.824-2.052-3.176-3.948-5-6v9a4.487,4.487,0,0,1-3,4l-4,1.888a8.717,8.717,0,0,1-6,0L22,29a4.487,4.487,0,0,1-3-4V15l-4.05,5A27.3,27.3,0,0,0,9,37V61H58V25Z" style="fill:#d3d2c1"/><path d="M25,5,19,8V25a4.487,4.487,0,0,0,3,4l4,1.888a8.717,8.717,0,0,0,6,0L36,29a4.487,4.487,0,0,0,3-4V8L33,5A10.543,10.543,0,0,0,25,5Z" style="fill:#e8e8e8"/><path d="M39,8l2.879-2.879A8.349,8.349,0,0,1,47,3h3a2,2,0,0,1,2,2h0a3.674,3.674,0,0,1-1,3l-2,2a10.231,10.231,0,0,1-7,3h0l-3,3Z" style="fill:#d3d2c1"/><path d="M19,8,16.121,5.121A8.349,8.349,0,0,0,11,3H8A2,2,0,0,0,6,5H6A3.674,3.674,0,0,0,7,8l2,2a10.231,10.231,0,0,0,7,3h0l3,3Z" style="fill:#d3d2c1"/><rect x="22" y="13" width="2" height="2"/><rect x="34" y="13" width="2" height="2"/><path d="M11,2H8A3,3,0,0,0,5,5,4.628,4.628,0,0,0,6.293,8.707l2,2a11.254,11.254,0,0,0,7.283,3.283l1.633,1.633-3.051,3.768A28.349,28.349,0,0,0,8,37V61a1,1,0,0,0,1,1H58a1,1,0,0,0,1-1V25a1,1,0,0,0-1-1H51a9.191,9.191,0,0,1-6.252-2.664c-.895-1.007-1.694-2-2.466-2.96-.606-.753-1.245-1.531-1.921-2.323l2.063-2.063a11.254,11.254,0,0,0,7.283-3.283l2-2A4.628,4.628,0,0,0,53,5a3,3,0,0,0-3-3H47a9.333,9.333,0,0,0-5.828,2.414L38.8,6.783l-5.43-2.712a11.568,11.568,0,0,0-8.744,0C24.6,4.082,19.2,6.783,19.2,6.783L16.828,4.414A9.333,9.333,0,0,0,11,2ZM40,8.414l2.586-2.586A7.416,7.416,0,0,1,47,4h3a1,1,0,0,1,1,1,2.737,2.737,0,0,1-.707,2.293l-2,2A9.448,9.448,0,0,1,42.9,11.942L44.868,8.5,43.132,7.5,40,12.985Zm-20,.2,5.409-2.7A9.557,9.557,0,0,1,32.553,5.9L38,8.618V25a3.506,3.506,0,0,1-2.427,3.1l-2.114,1L30,26.5V24.535l2.555-1.7-1.11-1.664L29,22.8l-2.445-1.63-1.11,1.664L28,24.535V26.5l-3.459,2.594-2.169-1.023A3.469,3.469,0,0,1,20,25ZM31.391,30.043a7.842,7.842,0,0,1-4.785,0L29,28.25ZM21.573,29.9l4.033,1.9a8.857,8.857,0,0,0,3.381.61,9,9,0,0,0,3.44-.625l3.945-1.863A5.449,5.449,0,0,0,40,25V18.738c.242.3,2.325,2.883,3.252,3.926a9.541,9.541,0,0,0,2.824,2.088,8.685,8.685,0,0,1-.958,4.777,9.338,9.338,0,0,1-6.3,4.489l.37,1.964a11.392,11.392,0,0,0,7.7-5.511A10.535,10.535,0,0,0,48.1,25.552,10.471,10.471,0,0,0,51,26h6V60H10V45.647a23.64,23.64,0,0,0,5.517,4.228,24.349,24.349,0,0,0,11.845,2.949,28.174,28.174,0,0,0,6.888-.855l-.5-1.938c-2.832.73-10.183,2.005-17.267-1.907A21.922,21.922,0,0,1,10,42.63V37a26.378,26.378,0,0,1,5.727-16.37L18,17.824V25A5.417,5.417,0,0,0,21.573,29.9ZM18,12.985,14.868,7.5,13.132,8.5,15.1,11.942A9.448,9.448,0,0,1,9.707,9.293l-2-2A2.737,2.737,0,0,1,7,5,1,1,0,0,1,8,4h3a7.416,7.416,0,0,1,4.414,1.828L18,8.414Z"/><path d="M18,39a3,3,0,0,0,6,0V38H22v1a1,1,0,0,1-2,0V38H18Z"/><path d="M29,42a3,3,0,0,0,3-3V38H30v1a1,1,0,0,1-2,0V38H26v1A3,3,0,0,0,29,42Z"/><path d="M37,42a3,3,0,0,0,3-3V38H38v1a1,1,0,0,1-2,0V38H34v1A3,3,0,0,0,37,42Z"/><path d="M24,43H22v1a3,3,0,0,0,6,0V43H26v1a1,1,0,0,1-2,0Z"/><path d="M32,43H30v1a3,3,0,0,0,6,0V43H34v1a1,1,0,0,1-2,0Z"/><path d="M40,43H38v1a3,3,0,0,0,6,0V43H42v1a1,1,0,0,1-2,0Z"/></g></svg>
