<?xml version="1.0" encoding="UTF-8"?>
<svg xmlns="http://www.w3.org/2000/svg" viewBox="0 0 64 64" width="512" height="512"><g id="Filled_outline" data-name="Filled outline"><path d="M21,15a36.479,36.479,0,0,1-8,10c-2.808,2.432-8.961,6.908-10,12-.086.422-1.318,6.08,2,9,1.837,1.617,5.3,2.6,7,1a4,4,0,0,0,1-3l11-4c1.738-.579,3.579-.844,5-2,.254-.206.674-.935,1-1,1.7-.34,3.343,1.959,5,4,6.478,7.979,9.232,7.109,12,13a23.173,23.173,0,0,1,2,7H61V21c-6.4-4.71-11.908-8.38-16-11-7.5-4.8-9.883-5.843-13-6-6.589-.331-13.981,3.431-14,7C17.991,12.692,19.639,14.1,21,15Z" style="fill:#e8e8e8"/><path d="M10,38a4.912,4.912,0,0,0-1.048-3.048L6,32H5.57A12.242,12.242,0,0,0,3,37c-.086.422-1.318,6.08,2,9,1.837,1.617,5.3,2.6,7,1a4,4,0,0,0,1-3l-1-1c-1.348-1.348-2-2.094-2-4Z" style="fill:#394d5c"/><path d="M22,3V9c-.226,2.713,1.335,6,4.058,6H27a1,1,0,0,1,1,1,2,2,0,0,0,4,0,6.852,6.852,0,0,0-2-5Z" style="fill:#394d5c"/><path d="M45.539,9.158C37.991,4.327,35.471,3.177,32.05,3a20.531,20.531,0,0,0-7.495,1.14L22.707,2.293A1,1,0,0,0,21,3l0,2.755c-2.566,1.549-3.991,3.392-4,5.239-.009,1.491.894,2.935,2.683,4.3a35.383,35.383,0,0,1-7.337,8.951c-.361.313-.778.659-1.233,1.036C7.881,27.967,3,32.027,2.021,36.8c-.239,1.112-1.246,6.819,2.318,9.954,2.292,2.019,6.284,2.919,8.348.976a4.529,4.529,0,0,0,1.3-3.02l10.334-3.759c.429-.142.864-.264,1.3-.386a10.541,10.541,0,0,0,4.031-1.8,3.568,3.568,0,0,0,.459-.509c.066-.083.164-.207.239-.29.941.006,2.3,1.7,3.405,3.073l.477.591a44.029,44.029,0,0,0,7.111,7.08,14.142,14.142,0,0,1,4.76,5.715,22.262,22.262,0,0,1,1.913,6.7A1,1,0,0,0,49,62H61a1,1,0,0,0,1-1V21a1,1,0,0,0-.407-.806C56.353,16.338,50.951,12.625,45.539,9.158ZM23,9V5.414l6.293,6.293A5.846,5.846,0,0,1,31,16a1,1,0,0,1-2,0,2,2,0,0,0-2-2h-.942a2.4,2.4,0,0,1-1.8-.855A5.7,5.7,0,0,1,23,9ZM5.66,45.249C2.876,42.8,3.855,37.78,3.979,37.2a10.491,10.491,0,0,1,1.875-3.932l2.391,2.391A4.02,4.02,0,0,1,9,38v1a5.2,5.2,0,0,0,.674,2.777A8.513,8.513,0,0,0,7.2,46.223,6.37,6.37,0,0,1,5.66,45.249Zm5.654,1.022a2.705,2.705,0,0,1-2.182.5,6.59,6.59,0,0,1,1.8-3.433c.117.121,1.058,1.065,1.058,1.065A2.729,2.729,0,0,1,11.314,46.271Zm1.943-3.428-.55-.55c-1.091-1.091-1.565-1.628-1.678-2.715,2.594-1.408,5.156-1.111,6.226.088a3.013,3.013,0,0,1,.669,1.48Zm6.558-2.385a4.958,4.958,0,0,0-1.069-2.124c-1.675-1.877-4.828-2.194-7.786-.945a6.569,6.569,0,0,0-.651-2.215l1.506-1.339c1.48-.3,5.462-.789,8.523,1.915a8.745,8.745,0,0,1,2.424,3.636Zm6.273-2.123c-.332.1-1.293.386-1.428.425a10.735,10.735,0,0,0-3-4.51,11.032,11.032,0,0,0-7.343-2.641l4.345-3.862-1.328-1.494L9.041,33.627,7.117,31.7a48.264,48.264,0,0,1,5.276-4.886c.464-.386.891-.741,1.261-1.061a37.681,37.681,0,0,0,8.22-10.271,1,1,0,0,0-.322-1.319c-1.675-1.108-2.558-2.2-2.552-3.16,0-.864.746-1.892,2-2.85v.761A7.63,7.63,0,0,0,22.785,14.5,4.381,4.381,0,0,0,26.058,16H27a2.967,2.967,0,0,0,.667,1.862l-1.646.34a6.092,6.092,0,0,1,0,2.579,4.69,4.69,0,0,1-1.454,2.457,5.208,5.208,0,0,0-1.546,2.542c-.388,1.729.378,2.967,1.19,4.278A11.97,11.97,0,0,1,26.021,34.2,11.559,11.559,0,0,1,26.088,38.335Zm9.219,1.452A13.944,13.944,0,0,0,32,36.462V33c0-1.574-.026-2.643-.046-3.453a17.131,17.131,0,0,1,.04-2.439,14.78,14.78,0,0,1,1.878-5.619l-1.744-.978a16.741,16.741,0,0,0-2.122,6.38,18.838,18.838,0,0,0-.051,2.705c.02.8.045,1.852.045,3.4v2.995c-.069.009-.138.013-.208.026a2.355,2.355,0,0,0-1.256.993c-.072.09-.137.176-.169.212-.05.04-.109.068-.16.107a13.271,13.271,0,0,0-.228-3.536A13.863,13.863,0,0,0,25.914,29c-.775-1.252-1.14-1.893-.938-2.784a3.324,3.324,0,0,1,1.045-1.6,6.653,6.653,0,0,0,1.955-3.4,8,8,0,0,0,.076-2.956A2.984,2.984,0,0,0,33,16a7.883,7.883,0,0,0-2.293-5.707L26.141,5.727A18.022,18.022,0,0,1,31.949,5a11.066,11.066,0,0,1,1.732.216,4.948,4.948,0,0,0-1.648,2.528,5.034,5.034,0,0,0,0,2.5l1.942-.484a2.974,2.974,0,0,1,0-1.5,3.622,3.622,0,0,1,2.156-2.23A35.224,35.224,0,0,1,39.691,7.9l-4.4,4.4,1.414,1.414,4.751-4.751c.873.536,1.832,1.137,2.91,1.827a17.136,17.136,0,0,0-5.176,4.627c-1.643,2.252-2.275,4.371-3.15,7.3a56.937,56.937,0,0,0-2.036,10.18l1.988.212a55.029,55.029,0,0,1,1.964-9.82c.926-3.1,1.474-4.81,2.85-6.7a15.352,15.352,0,0,1,5.441-4.581c.83.54,1.661,1.08,2.489,1.631a15.118,15.118,0,0,0-6.523,4.742c-2.121,2.688-2.612,5.767-3.133,9.027l-.069.434a32.658,32.658,0,0,0-.384,3.929,14.768,14.768,0,0,1-.588,3.947,18.16,18.16,0,0,1-2.2,4.729Zm6.748-3.433L42,36.908a66.711,66.711,0,0,0-.178,9.617,40.337,40.337,0,0,1-4.641-4.5,20.233,20.233,0,0,0,2.774-5.745,16.584,16.584,0,0,0,.668-4.412,30.94,30.94,0,0,1,.36-3.712l.07-.434c.5-3.126.929-5.825,2.728-8.1a13.173,13.173,0,0,1,7.068-4.553q1.239.84,2.472,1.692A22.466,22.466,0,0,0,44.1,26.57C42.677,29.559,42.429,32.262,42.055,36.354ZM60,60H57.078A23.471,23.471,0,0,1,60,50.443Zm0-13.306A25.933,25.933,0,0,0,55.073,60H52.54a63.362,63.362,0,0,0,3.428-9.748,30.262,30.262,0,0,0,.853-7.983,21.737,21.737,0,0,1,1.118-7.926A22.946,22.946,0,0,1,60,30.159Zm0-20.025a25.3,25.3,0,0,0-3.939,6.988,23.655,23.655,0,0,0-1.24,8.594,28.6,28.6,0,0,1-.789,7.5A61.3,61.3,0,0,1,50.351,60h-.485a24.035,24.035,0,0,0-1.961-6.426c-.23-.49-.463-.927-.7-1.338a17.412,17.412,0,0,0,3.682-4.779,18.529,18.529,0,0,0,1.844-8.27,27.239,27.239,0,0,1,.253-3.03C53.6,32.337,55.96,28.631,60,25.12Zm0-4.14c-5.2,4.134-8.236,8.609-8.987,13.314a29.152,29.152,0,0,0-.277,3.249,16.613,16.613,0,0,1-1.626,7.451,15.308,15.308,0,0,1-3.013,4A15.2,15.2,0,0,0,43.954,48.3,64.406,64.406,0,0,1,44,37.092l.051-.557c.367-4.015.589-6.439,1.856-9.1a20.574,20.574,0,0,1,9.258-9.391c.394.277.789.55,1.182.829a22.731,22.731,0,0,0-4.076,3.452C47.1,27.89,46.007,33.376,46,37a19.533,19.533,0,0,0,1.053,6.323l1.894-.642A17.514,17.514,0,0,1,48,37c.007-3.265,1.006-8.227,5.733-13.321a20.868,20.868,0,0,1,4.356-3.553c.637.459,1.278.914,1.911,1.378Z"/><rect x="19" y="23" width="2" height="2"/><rect x="6" y="39" width="2" height="2"/></g></svg>
